<mxfile host="app.diagrams.net" modified="2023-06-06T16:36:11.858Z" agent="Mozilla/5.0 (Macintosh; Intel Mac OS X 10_15_7) AppleWebKit/537.36 (KHTML, like Gecko) Chrome/114.0.0.0 Safari/537.36" etag="r3AtTsl_rAsZFBi7fNon" version="21.3.7" type="github">
  <diagram id="iXNMZK5xdMZsYgVs7E77" name="第 1 页">
    <mxGraphModel dx="4774" dy="3819" grid="1" gridSize="10" guides="1" tooltips="1" connect="1" arrows="1" fold="1" page="1" pageScale="1" pageWidth="827" pageHeight="1169" math="0" shadow="0">
      <root>
        <mxCell id="0" />
        <mxCell id="1" parent="0" />
        <mxCell id="ZyWzrjSWjqfe_8rXAog0-2" value="" style="rounded=0;whiteSpace=wrap;html=1;dashed=1;strokeWidth=4;fontStyle=1" parent="1" vertex="1">
          <mxGeometry x="-160" y="-176" width="3661" height="1535" as="geometry" />
        </mxCell>
        <mxCell id="ZyWzrjSWjqfe_8rXAog0-3" value="" style="rounded=0;whiteSpace=wrap;html=1;fillColor=none;strokeWidth=4;dashed=1;" parent="1" vertex="1">
          <mxGeometry x="1276" y="95" width="673.9" height="1080" as="geometry" />
        </mxCell>
        <mxCell id="ZyWzrjSWjqfe_8rXAog0-4" value="" style="swimlane;fontStyle=3;childLayout=stackLayout;horizontal=1;startSize=28;horizontalStack=1;resizeParent=1;resizeParentMax=0;resizeLast=0;collapsible=0;marginBottom=0;swimlaneFillColor=none;fontFamily=Permanent Marker;fontSize=19;points=[];verticalAlign=top;stackBorder=0;resizable=1;strokeWidth=2;sketch=1;disableMultiStroke=1;fillColor=#d5e8d4;strokeColor=#82b366;" parent="1" vertex="1">
          <mxGeometry x="-143" y="103" width="207" height="1045.5" as="geometry" />
        </mxCell>
        <object label="项目立项、新机型引入" status="New" id="ZyWzrjSWjqfe_8rXAog0-5">
          <mxCell style="swimlane;strokeWidth=2;fontFamily=Permanent Marker;html=0;startSize=1;verticalAlign=bottom;spacingBottom=5;points=[];childLayout=stackLayout;stackBorder=20;stackSpacing=20;resizeLast=0;resizeParent=1;horizontalStack=0;collapsible=0;sketch=1;strokeColor=#82b366;fillStyle=solid;fillColor=#d5e8d4;fontSize=19;fontStyle=1" parent="ZyWzrjSWjqfe_8rXAog0-4" vertex="1">
            <mxGeometry y="28" width="207" height="1017.5" as="geometry" />
          </mxCell>
        </object>
        <object label="研发：&lt;br&gt;立项、设计、打样、测试、评审、转量产" placeholders="1" id="ZyWzrjSWjqfe_8rXAog0-6">
          <mxCell style="whiteSpace=wrap;html=1;strokeWidth=2;fontStyle=1;spacingTop=0;rounded=1;arcSize=9;points=[];sketch=1;fontFamily=Permanent Marker;hachureGap=8;fillWeight=1;fontSize=19;fillColor=#d5e8d4;strokeColor=#82b366;" parent="ZyWzrjSWjqfe_8rXAog0-5" vertex="1">
            <mxGeometry x="20" y="21" width="167" height="136" as="geometry" />
          </mxCell>
        </object>
        <object label="商务：&lt;br&gt;评审、寻源、招标、合同、样机订单" placeholders="1" id="ZyWzrjSWjqfe_8rXAog0-7">
          <mxCell style="whiteSpace=wrap;html=1;strokeWidth=2;fontStyle=1;spacingTop=0;rounded=1;arcSize=9;points=[];sketch=1;fontFamily=Permanent Marker;hachureGap=8;fillWeight=1;fontSize=19;fillColor=#d5e8d4;strokeColor=#82b366;" parent="ZyWzrjSWjqfe_8rXAog0-5" vertex="1">
            <mxGeometry x="20" y="177" width="167" height="100" as="geometry" />
          </mxCell>
        </object>
        <object label="供应链：&lt;br&gt;评审、PMO录入机型BOM" placeholders="1" id="ZyWzrjSWjqfe_8rXAog0-8">
          <mxCell style="whiteSpace=wrap;html=1;strokeWidth=2;fontStyle=1;spacingTop=0;rounded=1;arcSize=9;points=[];sketch=1;fontFamily=Permanent Marker;hachureGap=8;fillWeight=1;fontSize=19;fillColor=#d5e8d4;strokeColor=#82b366;" parent="ZyWzrjSWjqfe_8rXAog0-5" vertex="1">
            <mxGeometry x="20" y="297" width="167" height="80" as="geometry" />
          </mxCell>
        </object>
        <object label="厂商：&lt;br&gt;实验室样机准备" placeholders="1" id="ZyWzrjSWjqfe_8rXAog0-9">
          <mxCell style="whiteSpace=wrap;html=1;strokeWidth=2;fontStyle=1;spacingTop=0;rounded=1;arcSize=9;points=[];sketch=1;fontFamily=Permanent Marker;hachureGap=8;fillWeight=1;fontSize=19;fillColor=#d5e8d4;strokeColor=#82b366;" parent="ZyWzrjSWjqfe_8rXAog0-5" vertex="1">
            <mxGeometry x="20" y="397" width="167" height="80" as="geometry" />
          </mxCell>
        </object>
        <object label="运营、开发：&lt;br&gt;技术能力支撑、&lt;br&gt;样机采集方案、样机测试方案、样机校验方案、&lt;br&gt;样机部署测试等" placeholders="1" id="ZyWzrjSWjqfe_8rXAog0-10">
          <mxCell style="whiteSpace=wrap;html=1;strokeWidth=2;fontStyle=1;spacingTop=0;rounded=1;arcSize=9;points=[];sketch=1;fontFamily=Permanent Marker;hachureGap=8;fillWeight=1;fontSize=19;fillColor=#d5e8d4;strokeColor=#82b366;" parent="ZyWzrjSWjqfe_8rXAog0-5" vertex="1">
            <mxGeometry x="20" y="497" width="167" height="164" as="geometry" />
          </mxCell>
        </object>
        <object label="PLM：&lt;br&gt;测试报告验收、PLM评审、&lt;br&gt;机型信息录入" placeholders="1" id="ZyWzrjSWjqfe_8rXAog0-11">
          <mxCell style="whiteSpace=wrap;html=1;strokeWidth=2;fontStyle=1;spacingTop=0;rounded=1;arcSize=9;points=[];sketch=1;fontFamily=Permanent Marker;hachureGap=8;fillWeight=1;fontSize=19;fillColor=#d5e8d4;strokeColor=#82b366;" parent="ZyWzrjSWjqfe_8rXAog0-5" vertex="1">
            <mxGeometry x="20" y="681" width="167" height="99" as="geometry" />
          </mxCell>
        </object>
        <object label="物流：&lt;br&gt;样机物流运输" placeholders="1" id="ZyWzrjSWjqfe_8rXAog0-12">
          <mxCell style="whiteSpace=wrap;html=1;strokeWidth=2;fontStyle=1;spacingTop=0;rounded=1;arcSize=9;points=[];sketch=1;fontFamily=Permanent Marker;hachureGap=8;fillWeight=1;fontSize=19;fillColor=#d5e8d4;strokeColor=#82b366;" parent="ZyWzrjSWjqfe_8rXAog0-5" vertex="1">
            <mxGeometry x="20" y="800" width="167" height="80" as="geometry" />
          </mxCell>
        </object>
        <mxCell id="ZyWzrjSWjqfe_8rXAog0-13" value="" style="swimlane;fontStyle=3;childLayout=stackLayout;horizontal=1;startSize=28;horizontalStack=1;resizeParent=1;resizeParentMax=0;resizeLast=0;collapsible=0;marginBottom=0;swimlaneFillColor=none;fontFamily=Permanent Marker;fontSize=19;points=[];verticalAlign=top;stackBorder=0;resizable=1;strokeWidth=2;sketch=1;disableMultiStroke=1;fillColor=#d5e8d4;strokeColor=#82b366;" parent="1" vertex="1">
          <mxGeometry x="108" y="105.5" width="220" height="1050" as="geometry" />
        </mxCell>
        <object label="供应链采购下单" status="New" id="ZyWzrjSWjqfe_8rXAog0-14">
          <mxCell style="swimlane;strokeWidth=2;fontFamily=Permanent Marker;html=0;startSize=1;verticalAlign=bottom;spacingBottom=5;points=[];childLayout=stackLayout;stackBorder=20;stackSpacing=20;resizeLast=0;resizeParent=1;horizontalStack=0;collapsible=0;sketch=1;strokeColor=#82b366;fillStyle=solid;fillColor=#d5e8d4;fontSize=19;fontStyle=1" parent="ZyWzrjSWjqfe_8rXAog0-13" vertex="1">
            <mxGeometry y="28" width="220" height="1022" as="geometry" />
          </mxCell>
        </object>
        <object label="业务部门：&lt;br&gt;资源需求上报" placeholders="1" id="ZyWzrjSWjqfe_8rXAog0-15">
          <mxCell style="whiteSpace=wrap;html=1;strokeWidth=2;fontStyle=1;spacingTop=0;rounded=1;arcSize=9;points=[];sketch=1;fontFamily=Permanent Marker;hachureGap=8;fillWeight=1;fontSize=19;fillColor=#d5e8d4;strokeColor=#82b366;" parent="ZyWzrjSWjqfe_8rXAog0-14" vertex="1">
            <mxGeometry x="20" y="21" width="180" height="80" as="geometry" />
          </mxCell>
        </object>
        <object label="厂商：&lt;br&gt;定期上报库存&lt;br&gt;反馈生产进度" placeholders="1" id="ZyWzrjSWjqfe_8rXAog0-16">
          <mxCell style="whiteSpace=wrap;html=1;strokeWidth=2;fontStyle=1;spacingTop=0;rounded=1;arcSize=9;points=[];sketch=1;fontFamily=Permanent Marker;hachureGap=8;fillWeight=1;fontSize=19;fillColor=#d5e8d4;strokeColor=#82b366;" parent="ZyWzrjSWjqfe_8rXAog0-14" vertex="1">
            <mxGeometry x="20" y="121" width="180" height="80" as="geometry" />
          </mxCell>
        </object>
        <object label="运管ERP：&lt;br&gt;需求汇总与预测&lt;br&gt;资源需求下发" placeholders="1" id="ZyWzrjSWjqfe_8rXAog0-17">
          <mxCell style="whiteSpace=wrap;html=1;strokeWidth=2;fontStyle=1;spacingTop=0;rounded=1;arcSize=9;points=[];sketch=1;fontFamily=Permanent Marker;hachureGap=8;fillWeight=1;fontSize=19;fillColor=#d5e8d4;strokeColor=#82b366;" parent="ZyWzrjSWjqfe_8rXAog0-14" vertex="1">
            <mxGeometry x="20" y="221" width="180" height="99" as="geometry" />
          </mxCell>
        </object>
        <object label="供应链：&lt;br&gt;确定供应策略、份额&lt;br&gt;下发采购订单&lt;br&gt;订单跟踪、货期同步" placeholders="1" id="ZyWzrjSWjqfe_8rXAog0-18">
          <mxCell style="whiteSpace=wrap;html=1;strokeWidth=2;fontStyle=1;spacingTop=0;rounded=1;arcSize=9;points=[];sketch=1;fontFamily=Permanent Marker;hachureGap=8;fillWeight=1;fontSize=19;fillColor=#d5e8d4;strokeColor=#82b366;" parent="ZyWzrjSWjqfe_8rXAog0-14" vertex="1">
            <mxGeometry x="20" y="340" width="180" height="99" as="geometry" />
          </mxCell>
        </object>
        <object label="商务EPO：&lt;br&gt;生成合同和采购订单" placeholders="1" id="ZyWzrjSWjqfe_8rXAog0-19">
          <mxCell style="whiteSpace=wrap;html=1;strokeWidth=2;fontStyle=1;spacingTop=0;rounded=1;arcSize=9;points=[];sketch=1;fontFamily=Permanent Marker;hachureGap=8;fillWeight=1;fontSize=19;fillColor=#d5e8d4;strokeColor=#82b366;" parent="ZyWzrjSWjqfe_8rXAog0-14" vertex="1">
            <mxGeometry x="20" y="459" width="180" height="80" as="geometry" />
          </mxCell>
        </object>
        <object label="运营、开发：&lt;br&gt;供应链技术能力支撑" placeholders="1" id="ZyWzrjSWjqfe_8rXAog0-20">
          <mxCell style="whiteSpace=wrap;html=1;strokeWidth=2;fontStyle=1;spacingTop=0;rounded=1;arcSize=9;points=[];sketch=1;fontFamily=Permanent Marker;hachureGap=8;fillWeight=1;fontSize=19;fillColor=#d5e8d4;strokeColor=#82b366;" parent="ZyWzrjSWjqfe_8rXAog0-14" vertex="1">
            <mxGeometry x="20" y="559" width="180" height="80" as="geometry" />
          </mxCell>
        </object>
        <mxCell id="ZyWzrjSWjqfe_8rXAog0-21" value="" style="swimlane;fontStyle=3;childLayout=stackLayout;horizontal=1;startSize=28;horizontalStack=1;resizeParent=1;resizeParentMax=0;resizeLast=0;collapsible=0;marginBottom=0;swimlaneFillColor=none;fontFamily=Permanent Marker;fontSize=19;points=[];verticalAlign=top;stackBorder=0;resizable=1;strokeWidth=2;sketch=1;disableMultiStroke=1;fillColor=#d5e8d4;strokeColor=#82b366;" parent="1" vertex="1">
          <mxGeometry x="360" y="105.5" width="180" height="1050" as="geometry" />
        </mxCell>
        <object label="工厂生产+出厂前验收" status="New" id="ZyWzrjSWjqfe_8rXAog0-22">
          <mxCell style="swimlane;strokeWidth=2;fontFamily=Permanent Marker;html=0;startSize=1;verticalAlign=bottom;spacingBottom=5;points=[];childLayout=stackLayout;stackBorder=20;stackSpacing=20;resizeLast=0;resizeParent=1;horizontalStack=0;collapsible=0;sketch=1;strokeColor=#82b366;fillStyle=solid;fillColor=#d5e8d4;fontSize=19;fontStyle=1" parent="ZyWzrjSWjqfe_8rXAog0-21" vertex="1">
            <mxGeometry y="28" width="180" height="1022" as="geometry" />
          </mxCell>
        </object>
        <object label="厂商：&lt;br&gt;工厂生产组装&lt;br&gt;机器出厂验收&lt;br&gt;（工厂压测、&lt;br&gt;ads采集比对、正向数据写入）&lt;br&gt;工厂发货" placeholders="1" id="ZyWzrjSWjqfe_8rXAog0-23">
          <mxCell style="whiteSpace=wrap;html=1;strokeWidth=2;fontStyle=1;spacingTop=0;rounded=1;arcSize=9;points=[];sketch=1;fontFamily=Permanent Marker;hachureGap=8;fillWeight=1;fontSize=19;fillColor=#d5e8d4;strokeColor=#82b366;" parent="ZyWzrjSWjqfe_8rXAog0-22" vertex="1">
            <mxGeometry x="20" y="21" width="140" height="171" as="geometry" />
          </mxCell>
        </object>
        <object label="运营、开发：&lt;br&gt;出厂验收比对&lt;br&gt;发货确认" placeholders="1" id="ZyWzrjSWjqfe_8rXAog0-24">
          <mxCell style="whiteSpace=wrap;html=1;strokeWidth=2;fontStyle=1;spacingTop=0;rounded=1;arcSize=9;points=[];sketch=1;fontFamily=Permanent Marker;hachureGap=8;fillWeight=1;fontSize=19;fillColor=#d5e8d4;strokeColor=#82b366;" parent="ZyWzrjSWjqfe_8rXAog0-22" vertex="1">
            <mxGeometry x="20" y="212" width="140" height="80" as="geometry" />
          </mxCell>
        </object>
        <object label="物流：&lt;br&gt;物流运输" placeholders="1" id="ZyWzrjSWjqfe_8rXAog0-25">
          <mxCell style="whiteSpace=wrap;html=1;strokeWidth=2;fontStyle=1;spacingTop=0;rounded=1;arcSize=9;points=[];sketch=1;fontFamily=Permanent Marker;hachureGap=8;fillWeight=1;fontSize=19;fillColor=#d5e8d4;strokeColor=#82b366;" parent="ZyWzrjSWjqfe_8rXAog0-22" vertex="1">
            <mxGeometry x="20" y="312" width="140" height="80" as="geometry" />
          </mxCell>
        </object>
        <mxCell id="ZyWzrjSWjqfe_8rXAog0-26" style="edgeStyle=orthogonalEdgeStyle;rounded=0;orthogonalLoop=1;jettySize=auto;html=1;strokeWidth=5;fontStyle=1" parent="1" source="ZyWzrjSWjqfe_8rXAog0-28" edge="1">
          <mxGeometry relative="1" as="geometry">
            <mxPoint x="852" y="1153" as="targetPoint" />
            <Array as="points">
              <mxPoint x="678" y="1268" />
              <mxPoint x="852" y="1268" />
            </Array>
          </mxGeometry>
        </mxCell>
        <mxCell id="ZyWzrjSWjqfe_8rXAog0-27" value="到货后改造" style="edgeLabel;html=1;align=center;verticalAlign=middle;resizable=0;points=[];fontSize=30;fontStyle=1" parent="ZyWzrjSWjqfe_8rXAog0-26" vertex="1" connectable="0">
          <mxGeometry x="-0.9174" relative="1" as="geometry">
            <mxPoint x="83" y="75" as="offset" />
          </mxGeometry>
        </mxCell>
        <mxCell id="ZyWzrjSWjqfe_8rXAog0-28" value="" style="swimlane;fontStyle=3;childLayout=stackLayout;horizontal=1;startSize=28;horizontalStack=1;resizeParent=1;resizeParentMax=0;resizeLast=0;collapsible=0;marginBottom=0;swimlaneFillColor=none;fontFamily=Permanent Marker;fontSize=19;points=[];verticalAlign=top;stackBorder=0;resizable=1;strokeWidth=2;sketch=1;disableMultiStroke=1;fillColor=#d5e8d4;strokeColor=#82b366;" parent="1" vertex="1">
          <mxGeometry x="578" y="105.5" width="180" height="1050.5" as="geometry" />
        </mxCell>
        <object label="到货验收流程" status="New" id="ZyWzrjSWjqfe_8rXAog0-29">
          <mxCell style="swimlane;strokeWidth=2;fontFamily=Permanent Marker;html=0;startSize=1;verticalAlign=bottom;spacingBottom=5;points=[];childLayout=stackLayout;stackBorder=20;stackSpacing=20;resizeLast=0;resizeParent=1;horizontalStack=0;collapsible=0;sketch=1;strokeColor=#82b366;fillStyle=solid;fillColor=#d5e8d4;fontSize=19;fontStyle=1" parent="ZyWzrjSWjqfe_8rXAog0-28" vertex="1">
            <mxGeometry y="28" width="180" height="1022.5" as="geometry" />
          </mxCell>
        </object>
        <object label="运管ERP：&lt;br&gt;根据货期发起&lt;br&gt;到货验收流程" placeholders="1" id="ZyWzrjSWjqfe_8rXAog0-30">
          <mxCell style="whiteSpace=wrap;html=1;strokeWidth=2;fontStyle=1;spacingTop=0;rounded=1;arcSize=9;points=[];sketch=1;fontFamily=Permanent Marker;hachureGap=8;fillWeight=1;fontSize=19;fillColor=#d5e8d4;strokeColor=#82b366;" parent="ZyWzrjSWjqfe_8rXAog0-29" vertex="1">
            <mxGeometry x="20" y="21" width="140" height="99" as="geometry" />
          </mxCell>
        </object>
        <object label="I平：&lt;br&gt;机房准备&lt;br&gt;机架开电&lt;br&gt;现场资产入库&lt;br&gt;上架、接线" placeholders="1" id="ZyWzrjSWjqfe_8rXAog0-31">
          <mxCell style="whiteSpace=wrap;html=1;strokeWidth=2;fontStyle=1;spacingTop=0;rounded=1;arcSize=9;points=[];sketch=1;fontFamily=Permanent Marker;hachureGap=8;fillWeight=1;fontSize=19;fillColor=#d5e8d4;strokeColor=#82b366;" parent="ZyWzrjSWjqfe_8rXAog0-29" vertex="1">
            <mxGeometry x="20" y="140" width="140" height="150" as="geometry" />
          </mxCell>
        </object>
        <object label="网平：&lt;br&gt;网络设备初始化" placeholders="1" id="ZyWzrjSWjqfe_8rXAog0-32">
          <mxCell style="whiteSpace=wrap;html=1;strokeWidth=2;fontStyle=1;spacingTop=0;rounded=1;arcSize=9;points=[];sketch=1;fontFamily=Permanent Marker;hachureGap=8;fillWeight=1;fontSize=19;fillColor=#d5e8d4;strokeColor=#82b366;" parent="ZyWzrjSWjqfe_8rXAog0-29" vertex="1">
            <mxGeometry x="20" y="310" width="140" height="90" as="geometry" />
          </mxCell>
        </object>
        <object label="运营、开发：&lt;br&gt;到货验收流程&lt;br&gt;通知供应链验收" placeholders="1" id="ZyWzrjSWjqfe_8rXAog0-33">
          <mxCell style="whiteSpace=wrap;html=1;strokeWidth=2;fontStyle=1;spacingTop=0;rounded=1;arcSize=9;points=[];sketch=1;fontFamily=Permanent Marker;hachureGap=8;fillWeight=1;fontSize=19;fillColor=#d5e8d4;strokeColor=#82b366;" parent="ZyWzrjSWjqfe_8rXAog0-29" vertex="1">
            <mxGeometry x="20" y="420" width="140" height="80" as="geometry" />
          </mxCell>
        </object>
        <object label="供应链：&lt;br&gt;确认验收&lt;br&gt;通知EPO付款" placeholders="1" id="ZyWzrjSWjqfe_8rXAog0-34">
          <mxCell style="whiteSpace=wrap;html=1;strokeWidth=2;fontStyle=1;spacingTop=0;rounded=1;arcSize=9;points=[];sketch=1;fontFamily=Permanent Marker;hachureGap=8;fillWeight=1;fontSize=19;fillColor=#d5e8d4;strokeColor=#82b366;" parent="ZyWzrjSWjqfe_8rXAog0-29" vertex="1">
            <mxGeometry x="20" y="520" width="140" height="80" as="geometry" />
          </mxCell>
        </object>
        <object label="商务EPO：&lt;br&gt;发放厂商货款" placeholders="1" id="ZyWzrjSWjqfe_8rXAog0-35">
          <mxCell style="whiteSpace=wrap;html=1;strokeWidth=2;fontStyle=1;spacingTop=0;rounded=1;arcSize=9;points=[];sketch=1;fontFamily=Permanent Marker;hachureGap=8;fillWeight=1;fontSize=19;fillColor=#d5e8d4;strokeColor=#82b366;" parent="ZyWzrjSWjqfe_8rXAog0-29" vertex="1">
            <mxGeometry x="20" y="620" width="140" height="80" as="geometry" />
          </mxCell>
        </object>
        <mxCell id="ZyWzrjSWjqfe_8rXAog0-36" value="" style="swimlane;fontStyle=3;childLayout=stackLayout;horizontal=1;startSize=28;horizontalStack=1;resizeParent=1;resizeParentMax=0;resizeLast=0;collapsible=0;marginBottom=0;swimlaneFillColor=none;fontFamily=Permanent Marker;fontSize=19;points=[];verticalAlign=top;stackBorder=0;resizable=1;strokeWidth=2;sketch=1;disableMultiStroke=1;fillColor=#d5e8d4;strokeColor=#82b366;" parent="1" vertex="1">
          <mxGeometry x="1072" y="105" width="175" height="1050" as="geometry" />
        </mxCell>
        <object label="部署流程" status="New" id="ZyWzrjSWjqfe_8rXAog0-37">
          <mxCell style="swimlane;strokeWidth=2;fontFamily=Permanent Marker;html=0;startSize=1;verticalAlign=bottom;spacingBottom=5;points=[];childLayout=stackLayout;stackBorder=20;stackSpacing=20;resizeLast=0;resizeParent=1;horizontalStack=0;collapsible=0;sketch=1;strokeColor=#82b366;fillStyle=solid;fillColor=#d5e8d4;fontSize=19;fontStyle=1" parent="ZyWzrjSWjqfe_8rXAog0-36" vertex="1">
            <mxGeometry y="28" width="175" height="1022" as="geometry" />
          </mxCell>
        </object>
        <object label="业务部门：&lt;br&gt;发起资源需求&lt;br&gt;接收运管资源" placeholders="1" id="ZyWzrjSWjqfe_8rXAog0-38">
          <mxCell style="whiteSpace=wrap;html=1;strokeWidth=2;fontStyle=1;spacingTop=0;rounded=1;arcSize=9;points=[];sketch=1;fontFamily=Permanent Marker;hachureGap=8;fillWeight=1;fontSize=19;fillColor=#d5e8d4;strokeColor=#82b366;" parent="ZyWzrjSWjqfe_8rXAog0-37" vertex="1">
            <mxGeometry x="20" y="21" width="135" height="80" as="geometry" />
          </mxCell>
        </object>
        <object label="运管ERP：&lt;br&gt;发起部署流程&lt;br&gt;分配给业务机器" placeholders="1" id="ZyWzrjSWjqfe_8rXAog0-39">
          <mxCell style="whiteSpace=wrap;html=1;strokeWidth=2;fontStyle=1;spacingTop=0;rounded=1;arcSize=9;points=[];sketch=1;fontFamily=Permanent Marker;hachureGap=8;fillWeight=1;fontSize=19;fillColor=#d5e8d4;strokeColor=#82b366;" parent="ZyWzrjSWjqfe_8rXAog0-37" vertex="1">
            <mxGeometry x="20" y="121" width="135" height="80" as="geometry" />
          </mxCell>
        </object>
        <object label="运营、开发：&lt;br&gt;机器网络准备&lt;br&gt;安装OS、烤机&lt;br&gt;交付运管资源池" placeholders="1" id="ZyWzrjSWjqfe_8rXAog0-40">
          <mxCell style="whiteSpace=wrap;html=1;strokeWidth=2;fontStyle=1;spacingTop=0;rounded=1;arcSize=9;points=[];sketch=1;fontFamily=Permanent Marker;hachureGap=8;fillWeight=1;fontSize=19;fillColor=#d5e8d4;strokeColor=#82b366;" parent="ZyWzrjSWjqfe_8rXAog0-37" vertex="1">
            <mxGeometry x="20" y="221" width="135" height="129" as="geometry" />
          </mxCell>
        </object>
        <object label="I平：&lt;br&gt;机架开电&lt;br&gt;" placeholders="1" id="ZyWzrjSWjqfe_8rXAog0-41">
          <mxCell style="whiteSpace=wrap;html=1;strokeWidth=2;fontStyle=1;spacingTop=0;rounded=1;arcSize=9;points=[];sketch=1;fontFamily=Permanent Marker;hachureGap=8;fillWeight=1;fontSize=19;fillColor=#d5e8d4;strokeColor=#82b366;" parent="ZyWzrjSWjqfe_8rXAog0-37" vertex="1">
            <mxGeometry x="20" y="370" width="135" height="90" as="geometry" />
          </mxCell>
        </object>
        <object label="网平：&lt;br&gt;网络设备初始化" placeholders="1" id="ZyWzrjSWjqfe_8rXAog0-42">
          <mxCell style="whiteSpace=wrap;html=1;strokeWidth=2;fontStyle=1;spacingTop=0;rounded=1;arcSize=9;points=[];sketch=1;fontFamily=Permanent Marker;hachureGap=8;fillWeight=1;fontSize=19;fillColor=#d5e8d4;strokeColor=#82b366;" parent="ZyWzrjSWjqfe_8rXAog0-37" vertex="1">
            <mxGeometry x="20" y="480" width="135" height="90" as="geometry" />
          </mxCell>
        </object>
        <mxCell id="ZyWzrjSWjqfe_8rXAog0-43" value="" style="swimlane;fontStyle=3;childLayout=stackLayout;horizontal=1;startSize=28;horizontalStack=1;resizeParent=1;resizeParentMax=0;resizeLast=0;collapsible=0;marginBottom=0;swimlaneFillColor=none;fontFamily=Permanent Marker;fontSize=19;points=[];verticalAlign=top;stackBorder=0;resizable=1;strokeWidth=2;sketch=1;disableMultiStroke=1;fillColor=#d5e8d4;strokeColor=#82b366;" parent="1" vertex="1">
          <mxGeometry x="1289" y="105" width="201" height="1056" as="geometry" />
        </mxCell>
        <object label="现网服务器作业" status="New" id="ZyWzrjSWjqfe_8rXAog0-44">
          <mxCell style="swimlane;strokeWidth=2;fontFamily=Permanent Marker;html=0;startSize=1;verticalAlign=bottom;spacingBottom=5;points=[];childLayout=stackLayout;stackBorder=20;stackSpacing=20;resizeLast=0;resizeParent=1;horizontalStack=0;collapsible=0;sketch=1;strokeColor=#82b366;fillStyle=solid;fillColor=#d5e8d4;fontSize=19;fontStyle=1" parent="ZyWzrjSWjqfe_8rXAog0-43" vertex="1">
            <mxGeometry y="28" width="201" height="1028" as="geometry" />
          </mxCell>
        </object>
        <object label="搬迁流程" placeholders="1" id="ZyWzrjSWjqfe_8rXAog0-45">
          <mxCell style="whiteSpace=wrap;html=1;strokeWidth=2;fontStyle=1;spacingTop=0;rounded=1;arcSize=9;points=[];sketch=1;fontFamily=Permanent Marker;hachureGap=8;fillWeight=1;fontSize=19;fillColor=#d5e8d4;strokeColor=#82b366;" parent="ZyWzrjSWjqfe_8rXAog0-44" vertex="1">
            <mxGeometry x="20" y="21" width="161" height="80" as="geometry" />
          </mxCell>
        </object>
        <object label="重装流程" placeholders="1" id="ZyWzrjSWjqfe_8rXAog0-46">
          <mxCell style="whiteSpace=wrap;html=1;strokeWidth=2;fontStyle=1;spacingTop=0;rounded=1;arcSize=9;points=[];sketch=1;fontFamily=Permanent Marker;hachureGap=8;fillWeight=1;fontSize=19;fillColor=#d5e8d4;strokeColor=#82b366;" parent="ZyWzrjSWjqfe_8rXAog0-44" vertex="1">
            <mxGeometry x="20" y="121" width="161" height="80" as="geometry" />
          </mxCell>
        </object>
        <object label="重启流程" placeholders="1" id="ZyWzrjSWjqfe_8rXAog0-47">
          <mxCell style="whiteSpace=wrap;html=1;strokeWidth=2;fontStyle=1;spacingTop=0;rounded=1;arcSize=9;points=[];sketch=1;fontFamily=Permanent Marker;hachureGap=8;fillWeight=1;fontSize=19;fillColor=#d5e8d4;strokeColor=#82b366;" parent="ZyWzrjSWjqfe_8rXAog0-44" vertex="1">
            <mxGeometry x="20" y="221" width="161" height="80" as="geometry" />
          </mxCell>
        </object>
        <object label="烤机流程" placeholders="1" id="ZyWzrjSWjqfe_8rXAog0-48">
          <mxCell style="whiteSpace=wrap;html=1;strokeWidth=2;fontStyle=1;spacingTop=0;rounded=1;arcSize=9;points=[];sketch=1;fontFamily=Permanent Marker;hachureGap=8;fillWeight=1;fontSize=19;fillColor=#d5e8d4;strokeColor=#82b366;" parent="ZyWzrjSWjqfe_8rXAog0-44" vertex="1">
            <mxGeometry x="20" y="321" width="161" height="80" as="geometry" />
          </mxCell>
        </object>
        <object label="固件升级流程" placeholders="1" id="ZyWzrjSWjqfe_8rXAog0-49">
          <mxCell style="whiteSpace=wrap;html=1;strokeWidth=2;fontStyle=1;spacingTop=0;rounded=1;arcSize=9;points=[];sketch=1;fontFamily=Permanent Marker;hachureGap=8;fillWeight=1;fontSize=19;fillColor=#d5e8d4;strokeColor=#82b366;" parent="ZyWzrjSWjqfe_8rXAog0-44" vertex="1">
            <mxGeometry x="20" y="421" width="161" height="80" as="geometry" />
          </mxCell>
        </object>
        <object label="开机流程" placeholders="1" id="ZyWzrjSWjqfe_8rXAog0-50">
          <mxCell style="whiteSpace=wrap;html=1;strokeWidth=2;fontStyle=1;spacingTop=0;rounded=1;arcSize=9;points=[];sketch=1;fontFamily=Permanent Marker;hachureGap=8;fillWeight=1;fontSize=19;fillColor=#d5e8d4;strokeColor=#82b366;" parent="ZyWzrjSWjqfe_8rXAog0-44" vertex="1">
            <mxGeometry x="20" y="521" width="161" height="80" as="geometry" />
          </mxCell>
        </object>
        <object label="关机流程" placeholders="1" id="ZyWzrjSWjqfe_8rXAog0-51">
          <mxCell style="whiteSpace=wrap;html=1;strokeWidth=2;fontStyle=1;spacingTop=0;rounded=1;arcSize=9;points=[];sketch=1;fontFamily=Permanent Marker;hachureGap=8;fillWeight=1;fontSize=19;fillColor=#d5e8d4;strokeColor=#82b366;" parent="ZyWzrjSWjqfe_8rXAog0-44" vertex="1">
            <mxGeometry x="20" y="621" width="161" height="80" as="geometry" />
          </mxCell>
        </object>
        <object label="整机置换流程" placeholders="1" id="ZyWzrjSWjqfe_8rXAog0-52">
          <mxCell style="whiteSpace=wrap;html=1;strokeWidth=2;fontStyle=1;spacingTop=0;rounded=1;arcSize=9;points=[];sketch=1;fontFamily=Permanent Marker;hachureGap=8;fillWeight=1;fontSize=19;fillColor=#d5e8d4;strokeColor=#82b366;" parent="ZyWzrjSWjqfe_8rXAog0-44" vertex="1">
            <mxGeometry x="20" y="721" width="161" height="80" as="geometry" />
          </mxCell>
        </object>
        <object label="服务请求流程" placeholders="1" id="ZyWzrjSWjqfe_8rXAog0-53">
          <mxCell style="whiteSpace=wrap;html=1;strokeWidth=2;fontStyle=1;spacingTop=0;rounded=1;arcSize=9;points=[];sketch=1;fontFamily=Permanent Marker;hachureGap=8;fillWeight=1;fontSize=19;fillColor=#d5e8d4;strokeColor=#82b366;" parent="ZyWzrjSWjqfe_8rXAog0-44" vertex="1">
            <mxGeometry x="20" y="821" width="161" height="80" as="geometry" />
          </mxCell>
        </object>
        <mxCell id="ZyWzrjSWjqfe_8rXAog0-54" style="edgeStyle=orthogonalEdgeStyle;rounded=0;orthogonalLoop=1;jettySize=auto;html=1;entryX=0.473;entryY=0.001;entryDx=0;entryDy=0;entryPerimeter=0;shape=flexArrow;fillColor=#d5e8d4;strokeColor=#82b366;fontStyle=1;fontSize=25;exitX=0.533;exitY=-0.003;exitDx=0;exitDy=0;exitPerimeter=0;" parent="1" source="ZyWzrjSWjqfe_8rXAog0-56" target="ZyWzrjSWjqfe_8rXAog0-36" edge="1">
          <mxGeometry relative="1" as="geometry">
            <Array as="points">
              <mxPoint x="2058" y="50" />
              <mxPoint x="1155" y="50" />
            </Array>
            <mxPoint x="1592" y="104" as="sourcePoint" />
            <mxPoint x="1202" y="105.50000000000001" as="targetPoint" />
          </mxGeometry>
        </mxCell>
        <mxCell id="ZyWzrjSWjqfe_8rXAog0-55" value="较新机器，闲置资源回收，删除数据，退回运管重新部署利用" style="edgeLabel;html=1;align=center;verticalAlign=middle;resizable=0;points=[];fontStyle=1;fontSize=30;" parent="ZyWzrjSWjqfe_8rXAog0-54" vertex="1" connectable="0">
          <mxGeometry x="0.1005" y="-1" relative="1" as="geometry">
            <mxPoint x="33" y="-6" as="offset" />
          </mxGeometry>
        </mxCell>
        <mxCell id="ZyWzrjSWjqfe_8rXAog0-56" value="" style="swimlane;fontStyle=3;childLayout=stackLayout;horizontal=1;startSize=28;horizontalStack=1;resizeParent=1;resizeParentMax=0;resizeLast=0;collapsible=0;marginBottom=0;swimlaneFillColor=none;fontFamily=Permanent Marker;fontSize=19;points=[];verticalAlign=top;stackBorder=0;resizable=1;strokeWidth=2;sketch=1;disableMultiStroke=1;fillColor=#d5e8d4;strokeColor=#82b366;" parent="1" vertex="1">
          <mxGeometry x="1964.9" y="112" width="175" height="1050" as="geometry" />
        </mxCell>
        <object label="回收流程" status="New" id="ZyWzrjSWjqfe_8rXAog0-57">
          <mxCell style="swimlane;strokeWidth=2;fontFamily=Permanent Marker;html=0;startSize=1;verticalAlign=bottom;spacingBottom=5;points=[];childLayout=stackLayout;stackBorder=20;stackSpacing=20;resizeLast=0;resizeParent=1;horizontalStack=0;collapsible=0;sketch=1;strokeColor=#82b366;fillStyle=solid;fillColor=#d5e8d4;fontSize=19;fontStyle=1" parent="ZyWzrjSWjqfe_8rXAog0-56" vertex="1">
            <mxGeometry y="28" width="175" height="1022" as="geometry" />
          </mxCell>
        </object>
        <object label="运管ERP：&lt;br&gt;下发回收需求&lt;br&gt;" placeholders="1" id="ZyWzrjSWjqfe_8rXAog0-58">
          <mxCell style="whiteSpace=wrap;html=1;strokeWidth=2;fontStyle=1;spacingTop=0;rounded=1;arcSize=9;points=[];sketch=1;fontFamily=Permanent Marker;hachureGap=8;fillWeight=1;fontSize=19;fillColor=#d5e8d4;strokeColor=#82b366;" parent="ZyWzrjSWjqfe_8rXAog0-57" vertex="1">
            <mxGeometry x="20" y="21" width="135" height="99" as="geometry" />
          </mxCell>
        </object>
        <object label="运营、开发：&lt;br&gt;回收检查与准备&lt;br&gt;智能网卡回收&lt;br&gt;擦除全盘数据&lt;br&gt;更新机器信息&lt;br&gt;机器退回运管" placeholders="1" id="ZyWzrjSWjqfe_8rXAog0-59">
          <mxCell style="whiteSpace=wrap;html=1;strokeWidth=2;fontStyle=1;spacingTop=0;rounded=1;arcSize=9;points=[];sketch=1;fontFamily=Permanent Marker;hachureGap=8;fillWeight=1;fontSize=19;fillColor=#d5e8d4;strokeColor=#82b366;" parent="ZyWzrjSWjqfe_8rXAog0-57" vertex="1">
            <mxGeometry x="20" y="140" width="135" height="190" as="geometry" />
          </mxCell>
        </object>
        <object label="网平：&lt;br&gt;IP回收" placeholders="1" id="ZyWzrjSWjqfe_8rXAog0-60">
          <mxCell style="whiteSpace=wrap;html=1;strokeWidth=2;fontStyle=1;spacingTop=0;rounded=1;arcSize=9;points=[];sketch=1;fontFamily=Permanent Marker;hachureGap=8;fillWeight=1;fontSize=19;fillColor=#d5e8d4;strokeColor=#82b366;" parent="ZyWzrjSWjqfe_8rXAog0-57" vertex="1">
            <mxGeometry x="20" y="350" width="135" height="90" as="geometry" />
          </mxCell>
        </object>
        <mxCell id="ZyWzrjSWjqfe_8rXAog0-61" value="" style="swimlane;fontStyle=3;childLayout=stackLayout;horizontal=1;startSize=28;horizontalStack=1;resizeParent=1;resizeParentMax=0;resizeLast=0;collapsible=0;marginBottom=0;swimlaneFillColor=none;fontFamily=Permanent Marker;fontSize=19;points=[];verticalAlign=top;stackBorder=0;resizable=1;strokeWidth=2;sketch=1;disableMultiStroke=1;fillColor=#d5e8d4;strokeColor=#82b366;" parent="1" vertex="1">
          <mxGeometry x="2197.9" y="112.5" width="175" height="1050" as="geometry" />
        </mxCell>
        <object label="退役流程" status="New" id="ZyWzrjSWjqfe_8rXAog0-62">
          <mxCell style="swimlane;strokeWidth=2;fontFamily=Permanent Marker;html=0;startSize=1;verticalAlign=bottom;spacingBottom=5;points=[];childLayout=stackLayout;stackBorder=20;stackSpacing=20;resizeLast=0;resizeParent=1;horizontalStack=0;collapsible=0;sketch=1;strokeColor=#82b366;fillStyle=solid;fillColor=#d5e8d4;fontSize=19;fontStyle=1" parent="ZyWzrjSWjqfe_8rXAog0-61" vertex="1">
            <mxGeometry y="28" width="175" height="1022" as="geometry" />
          </mxCell>
        </object>
        <object label="运管ERP：&lt;br&gt;下发退役需求&lt;br&gt;退役审批" placeholders="1" id="ZyWzrjSWjqfe_8rXAog0-63">
          <mxCell style="whiteSpace=wrap;html=1;strokeWidth=2;fontStyle=1;spacingTop=0;rounded=1;arcSize=9;points=[];sketch=1;fontFamily=Permanent Marker;hachureGap=8;fillWeight=1;fontSize=19;fillColor=#d5e8d4;strokeColor=#82b366;" parent="ZyWzrjSWjqfe_8rXAog0-62" vertex="1">
            <mxGeometry x="20" y="21" width="135" height="99" as="geometry" />
          </mxCell>
        </object>
        <object label="运营、开发：&lt;br&gt;发拔盘入库流程&lt;br&gt;删除资产库信息&lt;br&gt;删除CDMB、EPO信息" placeholders="1" id="ZyWzrjSWjqfe_8rXAog0-64">
          <mxCell style="whiteSpace=wrap;html=1;strokeWidth=2;fontStyle=1;spacingTop=0;rounded=1;arcSize=9;points=[];sketch=1;fontFamily=Permanent Marker;hachureGap=8;fillWeight=1;fontSize=19;fillColor=#d5e8d4;strokeColor=#82b366;" parent="ZyWzrjSWjqfe_8rXAog0-62" vertex="1">
            <mxGeometry x="20" y="140" width="135" height="129" as="geometry" />
          </mxCell>
        </object>
        <object label="I平：&lt;br&gt;拔盘、封箱&lt;br&gt;服务器资产出库&lt;br&gt;搬迁到利旧机房" placeholders="1" id="ZyWzrjSWjqfe_8rXAog0-65">
          <mxCell style="whiteSpace=wrap;html=1;strokeWidth=2;fontStyle=1;spacingTop=0;rounded=1;arcSize=9;points=[];sketch=1;fontFamily=Permanent Marker;hachureGap=8;fillWeight=1;fontSize=19;fillColor=#f8cecc;strokeColor=#b85450;" parent="ZyWzrjSWjqfe_8rXAog0-62" vertex="1">
            <mxGeometry x="20" y="289" width="135" height="150" as="geometry" />
          </mxCell>
        </object>
        <object label="物流：&lt;br&gt;物流运输" placeholders="1" id="ZyWzrjSWjqfe_8rXAog0-66">
          <mxCell style="whiteSpace=wrap;html=1;strokeWidth=2;fontStyle=1;spacingTop=0;rounded=1;arcSize=9;points=[];sketch=1;fontFamily=Permanent Marker;hachureGap=8;fillWeight=1;fontSize=19;fillColor=#d5e8d4;strokeColor=#82b366;" parent="ZyWzrjSWjqfe_8rXAog0-62" vertex="1">
            <mxGeometry x="20" y="459" width="135" height="80" as="geometry" />
          </mxCell>
        </object>
        <mxCell id="ZyWzrjSWjqfe_8rXAog0-67" style="edgeStyle=orthogonalEdgeStyle;rounded=0;orthogonalLoop=1;jettySize=auto;html=1;shape=flexArrow;fillColor=#d5e8d4;strokeColor=#82b366;fontStyle=1;" parent="ZyWzrjSWjqfe_8rXAog0-62" edge="1">
          <mxGeometry relative="1" as="geometry">
            <Array as="points">
              <mxPoint x="80" y="1071" />
              <mxPoint x="-1236" y="1071" />
            </Array>
            <mxPoint x="80.09999999999991" y="1024.5" as="sourcePoint" />
            <mxPoint x="-1235.9" y="1013.5" as="targetPoint" />
          </mxGeometry>
        </mxCell>
        <mxCell id="ZyWzrjSWjqfe_8rXAog0-68" value="&lt;b&gt;&lt;font style=&quot;font-size: 30px&quot;&gt;退役机器可改造、直接发起改造流程&lt;/font&gt;&lt;/b&gt;" style="edgeLabel;html=1;align=center;verticalAlign=middle;resizable=0;points=[];" parent="ZyWzrjSWjqfe_8rXAog0-67" vertex="1" connectable="0">
          <mxGeometry x="-0.1776" y="-1" relative="1" as="geometry">
            <mxPoint x="26" y="-5" as="offset" />
          </mxGeometry>
        </mxCell>
        <mxCell id="ZyWzrjSWjqfe_8rXAog0-69" value="" style="swimlane;fontStyle=3;childLayout=stackLayout;horizontal=1;startSize=28;horizontalStack=1;resizeParent=1;resizeParentMax=0;resizeLast=0;collapsible=0;marginBottom=0;swimlaneFillColor=none;fontFamily=Permanent Marker;fontSize=19;points=[];verticalAlign=top;stackBorder=0;resizable=1;strokeWidth=2;sketch=1;disableMultiStroke=1;fillColor=#d5e8d4;strokeColor=#82b366;" parent="1" vertex="1">
          <mxGeometry x="2960.9" y="110.5" width="220" height="1050" as="geometry" />
        </mxCell>
        <object label="硬盘销毁流程" status="New" id="ZyWzrjSWjqfe_8rXAog0-70">
          <mxCell style="swimlane;strokeWidth=2;fontFamily=Permanent Marker;html=0;startSize=1;verticalAlign=bottom;spacingBottom=5;points=[];childLayout=stackLayout;stackBorder=20;stackSpacing=20;resizeLast=0;resizeParent=1;horizontalStack=0;collapsible=0;sketch=1;strokeColor=#82b366;fillStyle=solid;fillColor=#d5e8d4;fontSize=19;fontStyle=1" parent="ZyWzrjSWjqfe_8rXAog0-69" vertex="1">
            <mxGeometry y="28" width="220" height="1022" as="geometry" />
          </mxCell>
        </object>
        <object label="运营、开发：&lt;br&gt;硬盘退役不可用后&lt;br&gt;运营定时或手动发起硬盘销毁流程&lt;span style=&quot;color: rgba(0, 0, 0, 0); font-family: monospace; font-size: 0px;&quot;&gt;%3CmxGraphModel%3E%3Croot%3E%3CmxCell%20id%3D%220%22%2F%3E%3CmxCell%20id%3D%221%22%20parent%3D%220%22%2F%3E%3Cobject%20label%3D%22%E8%BF%90%E8%90%A5%E3%80%81%E5%BC%80%E5%8F%91%EF%BC%9A%26lt%3Bbr%26gt%3B%E5%8F%91%E8%B5%B7%E5%88%A9%E6%97%A7%E6%8B%86%E5%8D%B8%26lt%3Bbr%26gt%3B%E9%83%A8%E4%BB%B6%E6%B5%8B%E8%AF%95%E6%B5%81%E7%A8%8B%22%20placeholders%3D%221%22%20id%3D%222%22%3E%3CmxCell%20style%3D%22whiteSpace%3Dwrap%3Bhtml%3D1%3BstrokeWidth%3D2%3BfontStyle%3D1%3BspacingTop%3D0%3Brounded%3D1%3BarcSize%3D9%3Bpoints%3D%5B%5D%3Bsketch%3D1%3BfontFamily%3DPermanent%20Marker%3BhachureGap%3D8%3BfillWeight%3D1%3BfontSize%3D19%3BfillColor%3D%23d5e8d4%3BstrokeColor%3D%2382b366%3B%22%20vertex%3D%221%22%20parent%3D%221%22%3E%3CmxGeometry%20x%3D%222270%22%20y%3D%22129%22%20width%3D%22190%22%20height%3D%22129%22%20as%3D%22geometry%22%2F%3E%3C%2FmxCell%3E%3C%2Fobject%3E%3C%2Froot%3E%3C%2FmxGraphModel%3E&lt;/span&gt;" placeholders="1" id="ZyWzrjSWjqfe_8rXAog0-71">
          <mxCell style="whiteSpace=wrap;html=1;strokeWidth=2;fontStyle=1;spacingTop=0;rounded=1;arcSize=9;points=[];sketch=1;fontFamily=Permanent Marker;hachureGap=8;fillWeight=1;fontSize=19;fillColor=#d5e8d4;strokeColor=#82b366;" parent="ZyWzrjSWjqfe_8rXAog0-70" vertex="1">
            <mxGeometry x="20" y="21" width="180" height="129" as="geometry" />
          </mxCell>
        </object>
        <object label="I平：&lt;br&gt;硬盘调拨到销毁中心&lt;br&gt;销毁硬盘资产出库&lt;br&gt;导入销毁资源库&lt;span style=&quot;color: rgba(0, 0, 0, 0); font-family: monospace; font-size: 0px;&quot;&gt;%3CmxGraphModel%3E%3Croot%3E%3CmxCell%20id%3D%220%22%2F%3E%3CmxCell%20id%3D%221%22%20parent%3D%220%22%2F%3E%3Cobject%20label%3D%22%E8%BF%90%E8%90%A5%E3%80%81%E5%BC%80%E5%8F%91%EF%BC%9A%26lt%3Bbr%26gt%3B%E5%8F%91%E8%B5%B7%E5%88%A9%E6%97%A7%E6%8B%86%E5%8D%B8%26lt%3Bbr%26gt%3B%E9%83%A8%E4%BB%B6%E6%B5%8B%E8%AF%95%E6%B5%81%E7%A8%8B%22%20placeholders%3D%221%22%20id%3D%222%22%3E%3CmxCell%20style%3D%22whiteSpace%3Dwrap%3Bhtml%3D1%3BstrokeWidth%3D2%3BfontStyle%3D1%3BspacingTop%3D0%3Brounded%3D1%3BarcSize%3D9%3Bpoints%3D%5B%5D%3Bsketch%3D1%3BfontFamily%3DPermanent%20Marker%3BhachureGap%3D8%3BfillWeight%3D1%3BfontSize%3D19%3BfillColor%3D%23d5e8d4%3BstrokeColor%3D%2382b366%3B%22%20vertex%3D%221%22%20parent%3D%221%22%3E%3CmxGeometry%20x%3D%222270%22%20y%3D%22129%22%20width%3D%22190%22%20height%3D%22129%22%20as%3D%22geometry%22%2F%3E%3C%2FmxCell%3E%3C%2Fobject%3E%3C%2Froot%3E%3C%2FmxGraphModel%3E&lt;/span&gt;" placeholders="1" id="ZyWzrjSWjqfe_8rXAog0-72">
          <mxCell style="whiteSpace=wrap;html=1;strokeWidth=2;fontStyle=1;spacingTop=0;rounded=1;arcSize=9;points=[];sketch=1;fontFamily=Permanent Marker;hachureGap=8;fillWeight=1;fontSize=19;fillColor=#f8cecc;strokeColor=#b85450;" parent="ZyWzrjSWjqfe_8rXAog0-70" vertex="1">
            <mxGeometry x="20" y="170" width="180" height="129" as="geometry" />
          </mxCell>
        </object>
        <object label="&lt;br&gt;销毁工厂：&lt;br&gt;智能放盘&lt;br&gt;扫描&lt;br&gt;拍照&lt;br&gt;（HDD）消磁&lt;br&gt;粉碎&lt;br&gt;&lt;span style=&quot;color: rgba(0, 0, 0, 0); font-family: monospace; font-size: 0px;&quot;&gt;%3CmxGraphModel%3E%3Croot%3E%3CmxCell%20id%3D%220%22%2F%3E%3CmxCell%20id%3D%221%22%20parent%3D%220%22%2F%3E%3Cobject%20label%3D%22I%E5%B9%B3%EF%BC%9A%26lt%3Bbr%26gt%3B%E9%A2%84%E7%BA%A6%E7%A7%8D%E5%AD%90%E6%9C%BA%26lt%3Bbr%26gt%3B%E6%B5%8B%E8%AF%95%E9%83%A8%E4%BB%B6%E5%87%BA%E5%BA%93%26lt%3Bbr%26gt%3B%E6%B5%8B%E8%AF%95%E9%83%A8%E4%BB%B6%E5%AE%89%E8%A3%85%22%20placeholders%3D%221%22%20id%3D%222%22%3E%3CmxCell%20style%3D%22whiteSpace%3Dwrap%3Bhtml%3D1%3BstrokeWidth%3D2%3BfontStyle%3D1%3BspacingTop%3D0%3Brounded%3D1%3BarcSize%3D9%3Bpoints%3D%5B%5D%3Bsketch%3D1%3BfontFamily%3DPermanent%20Marker%3BhachureGap%3D8%3BfillWeight%3D1%3BfontSize%3D19%3BfillColor%3D%23d5e8d4%3BstrokeColor%3D%2382b366%3B%22%20vertex%3D%221%22%20parent%3D%221%22%3E%3CmxGeometry%20x%3D%222270%22%20y%3D%22278%22%20width%3D%22190%22%20height%3D%22160%22%20as%3D%22geometry%22%2F%3E%3C%2FmxCell%3E%3C%2Fobject%3E%3C%2Froot%3E%3C%2FmxGraphModel%3E&lt;/span&gt;" placeholders="1" id="ZyWzrjSWjqfe_8rXAog0-73">
          <mxCell style="whiteSpace=wrap;html=1;strokeWidth=2;fontStyle=1;spacingTop=0;rounded=1;arcSize=9;points=[];sketch=1;fontFamily=Permanent Marker;hachureGap=8;fillWeight=1;fontSize=19;fillColor=#d5e8d4;strokeColor=#82b366;" parent="ZyWzrjSWjqfe_8rXAog0-70" vertex="1">
            <mxGeometry x="20" y="319" width="180" height="160" as="geometry" />
          </mxCell>
        </object>
        <mxCell id="ZyWzrjSWjqfe_8rXAog0-74" value="" style="shape=flexArrow;endArrow=classic;html=1;rounded=0;fillColor=#d5e8d4;strokeColor=#82b366;fontStyle=1" parent="1" edge="1">
          <mxGeometry width="50" height="50" relative="1" as="geometry">
            <mxPoint x="73" y="567.5" as="sourcePoint" />
            <mxPoint x="103" y="567.5" as="targetPoint" />
          </mxGeometry>
        </mxCell>
        <mxCell id="ZyWzrjSWjqfe_8rXAog0-75" value="" style="shape=flexArrow;endArrow=classic;html=1;rounded=0;fillColor=#d5e8d4;strokeColor=#82b366;fontStyle=1" parent="1" edge="1">
          <mxGeometry width="50" height="50" relative="1" as="geometry">
            <mxPoint x="328" y="575.5" as="sourcePoint" />
            <mxPoint x="358" y="575.5" as="targetPoint" />
          </mxGeometry>
        </mxCell>
        <mxCell id="ZyWzrjSWjqfe_8rXAog0-76" value="" style="shape=flexArrow;endArrow=classic;html=1;rounded=0;fillColor=#d5e8d4;strokeColor=#82b366;fontStyle=1" parent="1" edge="1">
          <mxGeometry width="50" height="50" relative="1" as="geometry">
            <mxPoint x="550" y="575.5" as="sourcePoint" />
            <mxPoint x="580" y="575.5" as="targetPoint" />
          </mxGeometry>
        </mxCell>
        <mxCell id="ZyWzrjSWjqfe_8rXAog0-77" value="" style="shape=flexArrow;endArrow=classic;html=1;rounded=0;fillColor=#d5e8d4;strokeColor=#82b366;fontStyle=1;width=9.735099337748345;endSize=5.362913907284769;" parent="1" edge="1">
          <mxGeometry width="50" height="50" relative="1" as="geometry">
            <mxPoint x="1011" y="575" as="sourcePoint" />
            <mxPoint x="1068" y="575" as="targetPoint" />
            <Array as="points" />
          </mxGeometry>
        </mxCell>
        <mxCell id="ZyWzrjSWjqfe_8rXAog0-78" value="&lt;span style=&quot;font-size: 25px ; font-weight: 700&quot;&gt;内&lt;br&gt;供&lt;br&gt;改&lt;br&gt;造&lt;br&gt;完&lt;br&gt;再&lt;br&gt;利&lt;br&gt;用&lt;br&gt;、&lt;br&gt;交&lt;br&gt;付&lt;br&gt;运&lt;br&gt;管&lt;br&gt;资&lt;br&gt;源&lt;br&gt;池&lt;br&gt;、&lt;br&gt;部&lt;br&gt;署&lt;br&gt;业&lt;br&gt;务&lt;/span&gt;" style="edgeLabel;html=1;align=center;verticalAlign=middle;resizable=0;points=[];" parent="ZyWzrjSWjqfe_8rXAog0-77" vertex="1" connectable="0">
          <mxGeometry x="-0.2781" y="-1" relative="1" as="geometry">
            <mxPoint x="-4" y="-48" as="offset" />
          </mxGeometry>
        </mxCell>
        <mxCell id="ZyWzrjSWjqfe_8rXAog0-79" value="" style="shape=flexArrow;endArrow=classic;html=1;rounded=0;fillColor=#d5e8d4;strokeColor=#82b366;fontStyle=1" parent="1" edge="1">
          <mxGeometry width="50" height="50" relative="1" as="geometry">
            <mxPoint x="1252.9" y="574" as="sourcePoint" />
            <mxPoint x="1289" y="574" as="targetPoint" />
          </mxGeometry>
        </mxCell>
        <mxCell id="ZyWzrjSWjqfe_8rXAog0-80" value="" style="shape=flexArrow;endArrow=classic;html=1;rounded=0;fillColor=#d5e8d4;strokeColor=#82b366;fontStyle=1" parent="1" edge="1">
          <mxGeometry width="50" height="50" relative="1" as="geometry">
            <mxPoint x="1936.9" y="582" as="sourcePoint" />
            <mxPoint x="1973.9" y="582" as="targetPoint" />
          </mxGeometry>
        </mxCell>
        <mxCell id="ZyWzrjSWjqfe_8rXAog0-81" value="" style="shape=flexArrow;endArrow=classic;html=1;rounded=0;fillColor=#d5e8d4;strokeColor=#82b366;fontStyle=1" parent="1" edge="1">
          <mxGeometry width="50" height="50" relative="1" as="geometry">
            <mxPoint x="2142.9" y="582" as="sourcePoint" />
            <mxPoint x="2194.9" y="582" as="targetPoint" />
          </mxGeometry>
        </mxCell>
        <mxCell id="ZyWzrjSWjqfe_8rXAog0-82" value="老&lt;br style=&quot;font-size: 25px;&quot;&gt;旧&lt;br style=&quot;font-size: 25px;&quot;&gt;机&lt;br style=&quot;font-size: 25px;&quot;&gt;器&lt;br style=&quot;font-size: 25px;&quot;&gt;、&lt;br style=&quot;font-size: 25px;&quot;&gt;退&lt;br style=&quot;font-size: 25px;&quot;&gt;役&lt;br style=&quot;font-size: 25px;&quot;&gt;处&lt;br style=&quot;font-size: 25px;&quot;&gt;理" style="edgeLabel;html=1;align=center;verticalAlign=middle;resizable=0;points=[];fontStyle=1;fontSize=25;" parent="ZyWzrjSWjqfe_8rXAog0-81" vertex="1" connectable="0">
          <mxGeometry x="-0.0567" y="1" relative="1" as="geometry">
            <mxPoint x="-8" y="-1" as="offset" />
          </mxGeometry>
        </mxCell>
        <mxCell id="ZyWzrjSWjqfe_8rXAog0-83" value="" style="swimlane;fontStyle=3;childLayout=stackLayout;horizontal=1;startSize=28;horizontalStack=1;resizeParent=1;resizeParentMax=0;resizeLast=0;collapsible=0;marginBottom=0;swimlaneFillColor=none;fontFamily=Permanent Marker;fontSize=19;points=[];verticalAlign=top;stackBorder=0;resizable=1;strokeWidth=2;sketch=1;disableMultiStroke=1;fillColor=#d5e8d4;strokeColor=#82b366;" parent="1" vertex="1">
          <mxGeometry x="2426.9" y="110.5" width="200" height="1050" as="geometry" />
        </mxCell>
        <object label="利旧整机拆卸流程" status="New" id="ZyWzrjSWjqfe_8rXAog0-84">
          <mxCell style="swimlane;strokeWidth=2;fontFamily=Permanent Marker;html=0;startSize=1;verticalAlign=bottom;spacingBottom=5;points=[];childLayout=stackLayout;stackBorder=20;stackSpacing=20;resizeLast=0;resizeParent=1;horizontalStack=0;collapsible=0;sketch=1;strokeColor=#82b366;fillStyle=solid;fillColor=#d5e8d4;fontSize=19;fontStyle=1" parent="ZyWzrjSWjqfe_8rXAog0-83" vertex="1">
            <mxGeometry y="28" width="200" height="1022" as="geometry" />
          </mxCell>
        </object>
        <object label="运营：&lt;br&gt;利旧机房机器&lt;br&gt;发起整机拆卸流程" placeholders="1" id="ZyWzrjSWjqfe_8rXAog0-85">
          <mxCell style="whiteSpace=wrap;html=1;strokeWidth=2;fontStyle=1;spacingTop=0;rounded=1;arcSize=9;points=[];sketch=1;fontFamily=Permanent Marker;hachureGap=8;fillWeight=1;fontSize=19;fillColor=#d5e8d4;strokeColor=#82b366;" parent="ZyWzrjSWjqfe_8rXAog0-84" vertex="1">
            <mxGeometry x="20" y="21" width="160" height="80" as="geometry" />
          </mxCell>
        </object>
        <object label="I平：&lt;br&gt;利旧整机出库&lt;br&gt;搬迁到拆卸工作台&lt;br&gt;加电检查&lt;br&gt;整机拆卸" placeholders="1" id="ZyWzrjSWjqfe_8rXAog0-86">
          <mxCell style="whiteSpace=wrap;html=1;strokeWidth=2;fontStyle=1;spacingTop=0;rounded=1;arcSize=9;points=[];sketch=1;fontFamily=Permanent Marker;hachureGap=8;fillWeight=1;fontSize=19;fillColor=#d5e8d4;strokeColor=#82b366;" parent="ZyWzrjSWjqfe_8rXAog0-84" vertex="1">
            <mxGeometry x="20" y="121" width="160" height="160" as="geometry" />
          </mxCell>
        </object>
        <object label="运营、开发：&lt;br&gt;对于ODM自维保机器：&lt;br&gt;L6部件测试&lt;br&gt;L6部件拆卸" placeholders="1" id="ZyWzrjSWjqfe_8rXAog0-87">
          <mxCell style="whiteSpace=wrap;html=1;strokeWidth=2;fontStyle=1;spacingTop=0;rounded=1;arcSize=9;points=[];sketch=1;fontFamily=Permanent Marker;hachureGap=8;fillWeight=1;fontSize=19;fillColor=#d5e8d4;strokeColor=#82b366;" parent="ZyWzrjSWjqfe_8rXAog0-84" vertex="1">
            <mxGeometry x="20" y="301" width="160" height="160" as="geometry" />
          </mxCell>
        </object>
        <object label="I平：&lt;br&gt;部件入库&lt;br&gt;机框入库" placeholders="1" id="ZyWzrjSWjqfe_8rXAog0-88">
          <mxCell style="whiteSpace=wrap;html=1;strokeWidth=2;fontStyle=1;spacingTop=0;rounded=1;arcSize=9;points=[];sketch=1;fontFamily=Permanent Marker;hachureGap=8;fillWeight=1;fontSize=19;fillColor=#f8cecc;strokeColor=#b85450;" parent="ZyWzrjSWjqfe_8rXAog0-84" vertex="1">
            <mxGeometry x="20" y="481" width="160" height="160" as="geometry" />
          </mxCell>
        </object>
        <object label="运营、开发：&lt;br&gt;更新ESDB、ESDB-R&lt;br&gt;删除整机关联资产&lt;br&gt;删除CMDB信息" placeholders="1" id="ZyWzrjSWjqfe_8rXAog0-89">
          <mxCell style="whiteSpace=wrap;html=1;strokeWidth=2;fontStyle=1;spacingTop=0;rounded=1;arcSize=9;points=[];sketch=1;fontFamily=Permanent Marker;hachureGap=8;fillWeight=1;fontSize=19;fillColor=#d5e8d4;strokeColor=#82b366;" parent="ZyWzrjSWjqfe_8rXAog0-84" vertex="1">
            <mxGeometry x="20" y="661" width="160" height="160" as="geometry" />
          </mxCell>
        </object>
        <mxCell id="ZyWzrjSWjqfe_8rXAog0-90" value="" style="swimlane;fontStyle=3;childLayout=stackLayout;horizontal=1;startSize=28;horizontalStack=1;resizeParent=1;resizeParentMax=0;resizeLast=0;collapsible=0;marginBottom=0;swimlaneFillColor=none;fontFamily=Permanent Marker;fontSize=19;points=[];verticalAlign=top;stackBorder=0;resizable=1;strokeWidth=2;sketch=1;disableMultiStroke=1;fillColor=#d5e8d4;strokeColor=#82b366;" parent="1" vertex="1">
          <mxGeometry x="3240.9" y="110.5" width="240" height="1050" as="geometry" />
        </mxCell>
        <object label="利旧转售流程" status="New" id="ZyWzrjSWjqfe_8rXAog0-91">
          <mxCell style="swimlane;strokeWidth=2;fontFamily=Permanent Marker;html=0;startSize=1;verticalAlign=bottom;spacingBottom=5;points=[];childLayout=stackLayout;stackBorder=20;stackSpacing=20;resizeLast=0;resizeParent=1;horizontalStack=0;collapsible=0;sketch=1;strokeColor=#82b366;fillStyle=solid;fillColor=#d5e8d4;fontSize=19;fontStyle=1" parent="ZyWzrjSWjqfe_8rXAog0-90" vertex="1">
            <mxGeometry y="28" width="240" height="1022" as="geometry" />
          </mxCell>
        </object>
        <object label="运营、开发：&lt;br&gt;监听退役、改造、&lt;br&gt;回收、出货事件&lt;br&gt;补充外售资源池&lt;br&gt;报价、客户分配&lt;br&gt;补充资产信息&lt;br&gt;邮件通知销售和客户&lt;br&gt;发物流单&lt;br&gt;发出货单&lt;br&gt;记录出货状态、结果" placeholders="1" id="ZyWzrjSWjqfe_8rXAog0-92">
          <mxCell style="whiteSpace=wrap;html=1;strokeWidth=2;fontStyle=1;spacingTop=0;rounded=1;arcSize=9;points=[];sketch=1;fontFamily=Permanent Marker;hachureGap=8;fillWeight=1;fontSize=19;fillColor=#d5e8d4;strokeColor=#82b366;" parent="ZyWzrjSWjqfe_8rXAog0-91" vertex="1">
            <mxGeometry x="20" y="21" width="200" height="280" as="geometry" />
          </mxCell>
        </object>
        <object label="I平星云系统：&lt;br&gt;受理外售出货&lt;br&gt;出货状态上报&lt;br&gt;出货结果上报" placeholders="1" id="ZyWzrjSWjqfe_8rXAog0-93">
          <mxCell style="whiteSpace=wrap;html=1;strokeWidth=2;fontStyle=1;spacingTop=0;rounded=1;arcSize=9;points=[];sketch=1;fontFamily=Permanent Marker;hachureGap=8;fillWeight=1;fontSize=19;fillColor=#d5e8d4;strokeColor=#82b366;" parent="ZyWzrjSWjqfe_8rXAog0-91" vertex="1">
            <mxGeometry x="20" y="321" width="200" height="160" as="geometry" />
          </mxCell>
        </object>
        <object label="物流：&lt;br&gt;物流运输" placeholders="1" id="ZyWzrjSWjqfe_8rXAog0-94">
          <mxCell style="whiteSpace=wrap;html=1;strokeWidth=2;fontStyle=1;spacingTop=0;rounded=1;arcSize=9;points=[];sketch=1;fontFamily=Permanent Marker;hachureGap=8;fillWeight=1;fontSize=19;fillColor=#d5e8d4;strokeColor=#82b366;" parent="ZyWzrjSWjqfe_8rXAog0-91" vertex="1">
            <mxGeometry x="20" y="501" width="200" height="80" as="geometry" />
          </mxCell>
        </object>
        <mxCell id="ZyWzrjSWjqfe_8rXAog0-95" value="" style="swimlane;fontStyle=3;childLayout=stackLayout;horizontal=1;startSize=28;horizontalStack=1;resizeParent=1;resizeParentMax=0;resizeLast=0;collapsible=0;marginBottom=0;swimlaneFillColor=none;fontFamily=Permanent Marker;fontSize=19;points=[];verticalAlign=top;stackBorder=0;resizable=1;strokeWidth=2;sketch=1;disableMultiStroke=1;fillColor=#d5e8d4;strokeColor=#82b366;" parent="1" vertex="1">
          <mxGeometry x="2680.9" y="110.5" width="230" height="1050" as="geometry" />
        </mxCell>
        <object label="利旧部件测试流程" status="New" id="ZyWzrjSWjqfe_8rXAog0-96">
          <mxCell style="swimlane;strokeWidth=2;fontFamily=Permanent Marker;html=0;startSize=1;verticalAlign=bottom;spacingBottom=5;points=[];childLayout=stackLayout;stackBorder=20;stackSpacing=20;resizeLast=0;resizeParent=1;horizontalStack=0;collapsible=0;sketch=1;strokeColor=#82b366;fillStyle=solid;fillColor=#d5e8d4;fontSize=19;fontStyle=1" parent="ZyWzrjSWjqfe_8rXAog0-95" vertex="1">
            <mxGeometry y="28" width="230" height="1022" as="geometry" />
          </mxCell>
        </object>
        <object label="运营、开发：&lt;br&gt;发起利旧拆卸&lt;br&gt;部件测试流程" placeholders="1" id="ZyWzrjSWjqfe_8rXAog0-97">
          <mxCell style="whiteSpace=wrap;html=1;strokeWidth=2;fontStyle=1;spacingTop=0;rounded=1;arcSize=9;points=[];sketch=1;fontFamily=Permanent Marker;hachureGap=8;fillWeight=1;fontSize=19;fillColor=#d5e8d4;strokeColor=#82b366;" parent="ZyWzrjSWjqfe_8rXAog0-96" vertex="1">
            <mxGeometry x="20" y="21" width="190" height="129" as="geometry" />
          </mxCell>
        </object>
        <object label="I平：&lt;br&gt;预约种子机&lt;br&gt;测试部件出库&lt;br&gt;测试部件安装" placeholders="1" id="ZyWzrjSWjqfe_8rXAog0-98">
          <mxCell style="whiteSpace=wrap;html=1;strokeWidth=2;fontStyle=1;spacingTop=0;rounded=1;arcSize=9;points=[];sketch=1;fontFamily=Permanent Marker;hachureGap=8;fillWeight=1;fontSize=19;fillColor=#f8cecc;strokeColor=#b85450;" parent="ZyWzrjSWjqfe_8rXAog0-96" vertex="1">
            <mxGeometry x="20" y="170" width="190" height="160" as="geometry" />
          </mxCell>
        </object>
        <object label="运营、开发：&lt;br&gt;性能测试" placeholders="1" id="ZyWzrjSWjqfe_8rXAog0-99">
          <mxCell style="whiteSpace=wrap;html=1;strokeWidth=2;fontStyle=1;spacingTop=0;rounded=1;arcSize=9;points=[];sketch=1;fontFamily=Permanent Marker;hachureGap=8;fillWeight=1;fontSize=19;fillColor=#d5e8d4;strokeColor=#82b366;" parent="ZyWzrjSWjqfe_8rXAog0-96" vertex="1">
            <mxGeometry x="20" y="350" width="190" height="149" as="geometry" />
          </mxCell>
        </object>
        <object label="I平：&lt;br&gt;测试部件拆卸&lt;br&gt;释放种子机&lt;br&gt;部件资产入库" placeholders="1" id="ZyWzrjSWjqfe_8rXAog0-100">
          <mxCell style="whiteSpace=wrap;html=1;strokeWidth=2;fontStyle=1;spacingTop=0;rounded=1;arcSize=9;points=[];sketch=1;fontFamily=Permanent Marker;hachureGap=8;fillWeight=1;fontSize=19;fillColor=#d5e8d4;strokeColor=#82b366;" parent="ZyWzrjSWjqfe_8rXAog0-96" vertex="1">
            <mxGeometry x="20" y="519" width="190" height="160" as="geometry" />
          </mxCell>
        </object>
        <object label="运营、开发：&lt;br&gt;更新ESDB-R&lt;br&gt;好件备件库重复利用&lt;br&gt;坏部件报废销毁、回收商处理&lt;br&gt;坏硬盘走硬盘销毁" placeholders="1" id="ZyWzrjSWjqfe_8rXAog0-101">
          <mxCell style="whiteSpace=wrap;html=1;strokeWidth=2;fontStyle=1;spacingTop=0;rounded=1;arcSize=9;points=[];sketch=1;fontFamily=Permanent Marker;hachureGap=8;fillWeight=1;fontSize=19;fillColor=#f8cecc;strokeColor=#b85450;" parent="ZyWzrjSWjqfe_8rXAog0-96" vertex="1">
            <mxGeometry x="20" y="699" width="190" height="181" as="geometry" />
          </mxCell>
        </object>
        <mxCell id="ZyWzrjSWjqfe_8rXAog0-102" value="" style="shape=flexArrow;endArrow=classic;html=1;rounded=0;fillColor=#d5e8d4;strokeColor=#82b366;fontStyle=1" parent="1" edge="1">
          <mxGeometry width="50" height="50" relative="1" as="geometry">
            <mxPoint x="2627" y="590" as="sourcePoint" />
            <mxPoint x="2680.8999999999996" y="590.5" as="targetPoint" />
          </mxGeometry>
        </mxCell>
        <mxCell id="ZyWzrjSWjqfe_8rXAog0-103" value="利&lt;br style=&quot;font-size: 25px;&quot;&gt;旧&lt;br style=&quot;font-size: 25px;&quot;&gt;拆&lt;br style=&quot;font-size: 25px;&quot;&gt;卸&lt;br style=&quot;font-size: 25px;&quot;&gt;部&lt;br style=&quot;font-size: 25px;&quot;&gt;件" style="edgeLabel;html=1;align=center;verticalAlign=middle;resizable=0;points=[];fontStyle=1;fontSize=25;" parent="ZyWzrjSWjqfe_8rXAog0-102" vertex="1" connectable="0">
          <mxGeometry x="-0.2192" y="1" relative="1" as="geometry">
            <mxPoint x="-5" as="offset" />
          </mxGeometry>
        </mxCell>
        <mxCell id="ZyWzrjSWjqfe_8rXAog0-104" value="" style="shape=flexArrow;endArrow=classic;html=1;rounded=0;fillColor=#d5e8d4;strokeColor=#82b366;fontStyle=1" parent="1" edge="1">
          <mxGeometry width="50" height="50" relative="1" as="geometry">
            <mxPoint x="2910.9000000000005" y="599.5" as="sourcePoint" />
            <mxPoint x="2960.8999999999996" y="600.5" as="targetPoint" />
          </mxGeometry>
        </mxCell>
        <mxCell id="ZyWzrjSWjqfe_8rXAog0-105" value="坏&lt;br style=&quot;font-size: 25px;&quot;&gt;硬&lt;br style=&quot;font-size: 25px;&quot;&gt;盘&lt;br style=&quot;font-size: 25px;&quot;&gt;销&lt;br style=&quot;font-size: 25px;&quot;&gt;毁" style="edgeLabel;html=1;align=center;verticalAlign=middle;resizable=0;points=[];fontStyle=1;fontSize=25;" parent="ZyWzrjSWjqfe_8rXAog0-104" vertex="1" connectable="0">
          <mxGeometry x="0.0207" y="2" relative="1" as="geometry">
            <mxPoint x="-12" y="-1" as="offset" />
          </mxGeometry>
        </mxCell>
        <mxCell id="ZyWzrjSWjqfe_8rXAog0-106" style="edgeStyle=orthogonalEdgeStyle;rounded=0;orthogonalLoop=1;jettySize=auto;html=1;shape=flexArrow;fillColor=#d5e8d4;strokeColor=#82b366;entryX=0.511;entryY=-0.001;entryDx=0;entryDy=0;entryPerimeter=0;fontStyle=1" parent="1" target="ZyWzrjSWjqfe_8rXAog0-90" edge="1">
          <mxGeometry relative="1" as="geometry">
            <Array as="points">
              <mxPoint x="2279" y="108" />
              <mxPoint x="2279" y="52" />
              <mxPoint x="3364" y="52" />
            </Array>
            <mxPoint x="2274" y="108" as="sourcePoint" />
            <mxPoint x="3090.9" y="60.5" as="targetPoint" />
          </mxGeometry>
        </mxCell>
        <mxCell id="ZyWzrjSWjqfe_8rXAog0-107" value="退役机器可转售、直接利旧转售" style="edgeLabel;html=1;align=center;verticalAlign=middle;resizable=0;points=[];fontStyle=1;fontSize=30;" parent="ZyWzrjSWjqfe_8rXAog0-106" vertex="1" connectable="0">
          <mxGeometry x="-0.0634" relative="1" as="geometry">
            <mxPoint x="8" y="-4" as="offset" />
          </mxGeometry>
        </mxCell>
        <mxCell id="ZyWzrjSWjqfe_8rXAog0-108" style="edgeStyle=orthogonalEdgeStyle;rounded=0;orthogonalLoop=1;jettySize=auto;html=1;shape=flexArrow;fillColor=#d5e8d4;strokeColor=#82b366;fontStyle=1" parent="1" edge="1">
          <mxGeometry relative="1" as="geometry">
            <Array as="points">
              <mxPoint x="914" y="1263" />
              <mxPoint x="3302" y="1263" />
            </Array>
            <mxPoint x="914" y="1158" as="sourcePoint" />
            <mxPoint x="3301.8999999999996" y="1158" as="targetPoint" />
          </mxGeometry>
        </mxCell>
        <mxCell id="ZyWzrjSWjqfe_8rXAog0-109" value="&lt;font style=&quot;font-size: 38px&quot;&gt;&lt;span&gt;整&lt;br&gt;机&lt;br&gt;生&lt;br&gt;命&lt;br&gt;周&lt;br&gt;期&lt;br&gt;流&lt;br&gt;转&lt;/span&gt;&lt;/font&gt;" style="rounded=0;whiteSpace=wrap;html=1;strokeColor=#82b366;fillColor=#d5e8d4;fontStyle=1" parent="1" vertex="1">
          <mxGeometry x="-282" y="-181" width="120" height="1541" as="geometry" />
        </mxCell>
        <mxCell id="ZyWzrjSWjqfe_8rXAog0-110" value="" style="rounded=0;whiteSpace=wrap;html=1;dashed=1;strokeWidth=4;fontStyle=1" parent="1" vertex="1">
          <mxGeometry x="-160" y="1446" width="3666" height="903" as="geometry" />
        </mxCell>
        <mxCell id="ZyWzrjSWjqfe_8rXAog0-111" value="&lt;font style=&quot;font-size: 38px&quot;&gt;&lt;span&gt;部&lt;br&gt;件&lt;br&gt;生&lt;br&gt;命&lt;br&gt;周&lt;br&gt;期&lt;br&gt;流&lt;br&gt;转&lt;/span&gt;&lt;/font&gt;" style="rounded=0;whiteSpace=wrap;html=1;strokeColor=#82b366;fillColor=#d5e8d4;fontStyle=1" parent="1" vertex="1">
          <mxGeometry x="-282" y="1444" width="120" height="907" as="geometry" />
        </mxCell>
        <mxCell id="ZyWzrjSWjqfe_8rXAog0-112" value="" style="swimlane;fontStyle=3;childLayout=stackLayout;horizontal=1;startSize=28;horizontalStack=1;resizeParent=1;resizeParentMax=0;resizeLast=0;collapsible=0;marginBottom=0;swimlaneFillColor=none;fontFamily=Permanent Marker;fontSize=19;points=[];verticalAlign=top;stackBorder=0;resizable=1;strokeWidth=2;sketch=1;disableMultiStroke=1;fillColor=#d5e8d4;strokeColor=#82b366;" parent="1" vertex="1">
          <mxGeometry x="790" y="103" width="220" height="1050" as="geometry" />
        </mxCell>
        <object label="改造流程" status="New" id="ZyWzrjSWjqfe_8rXAog0-113">
          <mxCell style="swimlane;strokeWidth=2;fontFamily=Permanent Marker;html=0;startSize=1;verticalAlign=bottom;spacingBottom=5;points=[];childLayout=stackLayout;stackBorder=20;stackSpacing=20;resizeLast=0;resizeParent=1;horizontalStack=0;collapsible=0;sketch=1;strokeColor=#82b366;fillStyle=solid;fillColor=#d5e8d4;fontSize=19;fontStyle=1" parent="ZyWzrjSWjqfe_8rXAog0-112" vertex="1">
            <mxGeometry y="28" width="220" height="1022" as="geometry" />
          </mxCell>
        </object>
        <object label="运管ERP：&lt;br&gt;发起改造需求&lt;br&gt;运管改造评估&lt;br&gt;改造方案创建&lt;br&gt;采购、调拨" placeholders="1" id="ZyWzrjSWjqfe_8rXAog0-114">
          <mxCell style="whiteSpace=wrap;html=1;strokeWidth=2;fontStyle=1;spacingTop=0;rounded=1;arcSize=9;points=[];sketch=1;fontFamily=Permanent Marker;hachureGap=8;fillWeight=1;fontSize=19;fillColor=#d5e8d4;strokeColor=#82b366;" parent="ZyWzrjSWjqfe_8rXAog0-113" vertex="1">
            <mxGeometry x="20" y="21" width="180" height="120" as="geometry" />
          </mxCell>
        </object>
        <object label="I平：&lt;br&gt;点亮测试、&lt;br&gt;去除过保硬件&lt;br&gt;故障设备" placeholders="1" id="ZyWzrjSWjqfe_8rXAog0-115">
          <mxCell style="whiteSpace=wrap;html=1;strokeWidth=2;fontStyle=1;spacingTop=0;rounded=1;arcSize=9;points=[];sketch=1;fontFamily=Permanent Marker;hachureGap=8;fillWeight=1;fontSize=19;fillColor=#d5e8d4;strokeColor=#82b366;" parent="ZyWzrjSWjqfe_8rXAog0-113" vertex="1">
            <mxGeometry x="20" y="161" width="180" height="150" as="geometry" />
          </mxCell>
        </object>
        <object label="运营、开发：&lt;br&gt;改造下单" placeholders="1" id="ZyWzrjSWjqfe_8rXAog0-116">
          <mxCell style="whiteSpace=wrap;html=1;strokeWidth=2;fontStyle=1;spacingTop=0;rounded=1;arcSize=9;points=[];sketch=1;fontFamily=Permanent Marker;hachureGap=8;fillWeight=1;fontSize=19;fillColor=#d5e8d4;strokeColor=#82b366;" parent="ZyWzrjSWjqfe_8rXAog0-113" vertex="1">
            <mxGeometry x="20" y="331" width="180" height="81" as="geometry" />
          </mxCell>
        </object>
        <object label="I平：&lt;br&gt;现场出入库&lt;br&gt;现场改造实施" placeholders="1" id="ZyWzrjSWjqfe_8rXAog0-117">
          <mxCell style="whiteSpace=wrap;html=1;strokeWidth=2;fontStyle=1;spacingTop=0;rounded=1;arcSize=9;points=[];sketch=1;fontFamily=Permanent Marker;hachureGap=8;fillWeight=1;fontSize=19;fillColor=#f8cecc;strokeColor=#b85450;" parent="ZyWzrjSWjqfe_8rXAog0-113" vertex="1">
            <mxGeometry x="20" y="432" width="180" height="121" as="geometry" />
          </mxCell>
        </object>
        <object label="运营、开发：&lt;br&gt;配置审计&lt;br&gt;固件升降级&lt;br&gt;压测、初始化&lt;br&gt;交付验收&lt;br&gt;更新归档" placeholders="1" id="ZyWzrjSWjqfe_8rXAog0-118">
          <mxCell style="whiteSpace=wrap;html=1;strokeWidth=2;fontStyle=1;spacingTop=0;rounded=1;arcSize=9;points=[];sketch=1;fontFamily=Permanent Marker;hachureGap=8;fillWeight=1;fontSize=19;fillColor=#d5e8d4;strokeColor=#82b366;" parent="ZyWzrjSWjqfe_8rXAog0-113" vertex="1">
            <mxGeometry x="20" y="573" width="180" height="145" as="geometry" />
          </mxCell>
        </object>
        <object label="I平：&lt;br&gt;改造完成&lt;br&gt;服务器出库" placeholders="1" id="ZyWzrjSWjqfe_8rXAog0-119">
          <mxCell style="whiteSpace=wrap;html=1;strokeWidth=2;fontStyle=1;spacingTop=0;rounded=1;arcSize=9;points=[];sketch=1;fontFamily=Permanent Marker;hachureGap=8;fillWeight=1;fontSize=19;fillColor=#d5e8d4;strokeColor=#82b366;" parent="ZyWzrjSWjqfe_8rXAog0-113" vertex="1">
            <mxGeometry x="20" y="738" width="180" height="101" as="geometry" />
          </mxCell>
        </object>
        <object label="物流：&lt;br&gt;物流运输" placeholders="1" id="ZyWzrjSWjqfe_8rXAog0-120">
          <mxCell style="whiteSpace=wrap;html=1;strokeWidth=2;fontStyle=1;spacingTop=0;rounded=1;arcSize=9;points=[];sketch=1;fontFamily=Permanent Marker;hachureGap=8;fillWeight=1;fontSize=19;fillColor=#d5e8d4;strokeColor=#82b366;" parent="ZyWzrjSWjqfe_8rXAog0-113" vertex="1">
            <mxGeometry x="20" y="859" width="180" height="80" as="geometry" />
          </mxCell>
        </object>
        <mxCell id="ZyWzrjSWjqfe_8rXAog0-121" value="" style="shape=flexArrow;endArrow=classic;html=1;rounded=0;fillColor=#d5e8d4;strokeColor=#82b366;fontStyle=1" parent="1" edge="1">
          <mxGeometry width="50" height="50" relative="1" as="geometry">
            <mxPoint x="2379.9" y="582" as="sourcePoint" />
            <mxPoint x="2429.8" y="582" as="targetPoint" />
          </mxGeometry>
        </mxCell>
        <mxCell id="ZyWzrjSWjqfe_8rXAog0-122" value="退&lt;br style=&quot;font-size: 25px&quot;&gt;役&lt;br style=&quot;font-size: 25px&quot;&gt;机&lt;br style=&quot;font-size: 25px&quot;&gt;器&lt;br&gt;不&lt;br&gt;可&lt;br&gt;转&lt;br&gt;售&lt;br&gt;、&lt;br&gt;不&lt;br style=&quot;font-size: 25px&quot;&gt;可&lt;br style=&quot;font-size: 25px&quot;&gt;改&lt;br style=&quot;font-size: 25px&quot;&gt;造&lt;br style=&quot;font-size: 25px&quot;&gt;、&lt;br style=&quot;font-size: 25px&quot;&gt;整&lt;br&gt;机&lt;br&gt;拆&lt;br&gt;卸&lt;br&gt;、&lt;br&gt;部&lt;br&gt;件&lt;br&gt;重&lt;br&gt;复&lt;br&gt;利&lt;br&gt;用" style="edgeLabel;html=1;align=center;verticalAlign=middle;resizable=0;points=[];fontStyle=1;fontSize=25;" parent="ZyWzrjSWjqfe_8rXAog0-121" vertex="1" connectable="0">
          <mxGeometry x="-0.0567" y="1" relative="1" as="geometry">
            <mxPoint x="-10" y="-1" as="offset" />
          </mxGeometry>
        </mxCell>
        <mxCell id="ZyWzrjSWjqfe_8rXAog0-123" value="&lt;font style=&quot;font-size: 30px&quot;&gt;转售改造完、直接转售&lt;/font&gt;" style="edgeLabel;html=1;align=center;verticalAlign=middle;resizable=0;points=[];fontStyle=1;fontSize=23;" parent="1" vertex="1" connectable="0">
          <mxGeometry x="1143.999960545928" y="1247.9971428571437" as="geometry" />
        </mxCell>
        <mxCell id="ZyWzrjSWjqfe_8rXAog0-124" value="" style="swimlane;fontStyle=3;childLayout=stackLayout;horizontal=1;startSize=28;horizontalStack=1;resizeParent=1;resizeParentMax=0;resizeLast=0;collapsible=0;marginBottom=0;swimlaneFillColor=none;fontFamily=Permanent Marker;fontSize=23;points=[];verticalAlign=top;stackBorder=0;resizable=1;strokeWidth=2;sketch=1;disableMultiStroke=1;fillColor=#d5e8d4;strokeColor=#82b366;" parent="1" vertex="1">
          <mxGeometry x="615" y="1510.0000000000002" width="227" height="355" as="geometry" />
        </mxCell>
        <object label="部件采购验收流程" status="New" id="ZyWzrjSWjqfe_8rXAog0-125">
          <mxCell style="swimlane;strokeWidth=2;fontFamily=Permanent Marker;html=0;startSize=1;verticalAlign=bottom;spacingBottom=5;points=[];childLayout=stackLayout;stackBorder=20;stackSpacing=20;resizeLast=0;resizeParent=1;horizontalStack=0;collapsible=0;sketch=1;strokeColor=#82b366;fillStyle=solid;fillColor=#d5e8d4;fontSize=23;fontStyle=1" parent="ZyWzrjSWjqfe_8rXAog0-124" vertex="1">
            <mxGeometry y="28" width="227" height="327" as="geometry" />
          </mxCell>
        </object>
        <object label="&lt;div style=&quot;text-align: center&quot;&gt;&lt;span&gt;部件采购验收&lt;/span&gt;&lt;/div&gt;&lt;span style=&quot;font-size: 19px&quot;&gt;采购部件资产入库，更新资产库信息，验收结果信息同步&lt;/span&gt;" placeholders="1" id="ZyWzrjSWjqfe_8rXAog0-126">
          <mxCell style="whiteSpace=wrap;html=1;strokeWidth=2;fontStyle=1;spacingTop=0;rounded=1;arcSize=9;points=[];sketch=1;fontFamily=Permanent Marker;hachureGap=8;fillWeight=1;fontSize=19;fillColor=#d5e8d4;strokeColor=#82b366;align=left;fontColor=#000000;labelBackgroundColor=none;" parent="ZyWzrjSWjqfe_8rXAog0-125" vertex="1">
            <mxGeometry x="20" y="21" width="187" height="136" as="geometry" />
          </mxCell>
        </object>
        <object label="&lt;div style=&quot;text-align: center&quot;&gt;&lt;span&gt;新采购部件统一入央库&lt;/span&gt;&lt;/div&gt;&lt;div style=&quot;font-size: 19px&quot;&gt;&lt;span style=&quot;font-size: 19px&quot;&gt;（深圳平湖中央备件库）&lt;/span&gt;&lt;/div&gt;" placeholders="1" id="ZyWzrjSWjqfe_8rXAog0-127">
          <mxCell style="whiteSpace=wrap;html=1;strokeWidth=2;fontStyle=1;spacingTop=0;rounded=1;arcSize=9;points=[];sketch=1;fontFamily=Permanent Marker;hachureGap=8;fillWeight=1;fontSize=19;fillColor=#d5e8d4;strokeColor=#82b366;align=left;fontColor=#000000;labelBackgroundColor=none;" parent="ZyWzrjSWjqfe_8rXAog0-125" vertex="1">
            <mxGeometry x="20" y="177" width="187" height="118" as="geometry" />
          </mxCell>
        </object>
        <mxCell id="ZyWzrjSWjqfe_8rXAog0-128" value="" style="swimlane;fontStyle=3;childLayout=stackLayout;horizontal=1;startSize=28;horizontalStack=1;resizeParent=1;resizeParentMax=0;resizeLast=0;collapsible=0;marginBottom=0;swimlaneFillColor=none;fontFamily=Permanent Marker;fontSize=23;points=[];verticalAlign=top;stackBorder=0;resizable=1;strokeWidth=2;sketch=1;disableMultiStroke=1;fillColor=#d5e8d4;strokeColor=#82b366;" parent="1" vertex="1">
          <mxGeometry x="858.5" y="1514.0000000000002" width="201" height="353" as="geometry" />
        </mxCell>
        <object label="部件调拨流程" status="New" id="ZyWzrjSWjqfe_8rXAog0-129">
          <mxCell style="swimlane;strokeWidth=2;fontFamily=Permanent Marker;html=0;startSize=1;verticalAlign=bottom;spacingBottom=5;points=[];childLayout=stackLayout;stackBorder=20;stackSpacing=20;resizeLast=0;resizeParent=1;horizontalStack=0;collapsible=0;sketch=1;strokeColor=#82b366;fillStyle=solid;fillColor=#d5e8d4;fontSize=23;fontStyle=1" parent="ZyWzrjSWjqfe_8rXAog0-128" vertex="1">
            <mxGeometry y="28" width="201" height="325" as="geometry" />
          </mxCell>
        </object>
        <object label="&lt;div style=&quot;text-align: center&quot;&gt;&lt;span style=&quot;font-family: &amp;#34;helvetica&amp;#34;&quot;&gt;库存协调：&lt;/span&gt;&lt;/div&gt;&lt;span style=&quot;font-size: 19px&quot;&gt;把一批部件从A库房走物流寄送到B机房&lt;br&gt;&lt;/span&gt;" placeholders="1" id="ZyWzrjSWjqfe_8rXAog0-130">
          <mxCell style="whiteSpace=wrap;html=1;strokeWidth=2;fontStyle=1;spacingTop=0;rounded=1;arcSize=9;points=[];sketch=1;fontFamily=Permanent Marker;hachureGap=8;fillWeight=1;fontSize=19;fillColor=#d5e8d4;strokeColor=#82b366;align=left;fontColor=#000000;labelBackgroundColor=none;" parent="ZyWzrjSWjqfe_8rXAog0-129" vertex="1">
            <mxGeometry x="20" y="21" width="161" height="114" as="geometry" />
          </mxCell>
        </object>
        <object label="&lt;div style=&quot;text-align: center&quot;&gt;&lt;span&gt;发起方式：&lt;/span&gt;&lt;br&gt;&lt;/div&gt;&lt;span style=&quot;font-size: 19px&quot;&gt;作为独立流程人工发起.&lt;/span&gt;&lt;br style=&quot;font-size: 19px&quot;&gt;&lt;span style=&quot;font-size: 19px&quot;&gt;故障时自动发起调拨&lt;/span&gt;" placeholders="1" id="ZyWzrjSWjqfe_8rXAog0-131">
          <mxCell style="whiteSpace=wrap;html=1;strokeWidth=2;fontStyle=1;spacingTop=0;rounded=1;arcSize=9;points=[];sketch=1;fontFamily=Permanent Marker;hachureGap=8;fillWeight=1;fontSize=19;fillColor=#d5e8d4;strokeColor=#82b366;align=left;fontColor=#000000;labelBackgroundColor=none;" parent="ZyWzrjSWjqfe_8rXAog0-129" vertex="1">
            <mxGeometry x="20" y="155" width="161" height="146" as="geometry" />
          </mxCell>
        </object>
        <mxCell id="ZyWzrjSWjqfe_8rXAog0-132" value="" style="swimlane;fontStyle=3;childLayout=stackLayout;horizontal=1;startSize=28;horizontalStack=1;resizeParent=1;resizeParentMax=0;resizeLast=0;collapsible=0;marginBottom=0;swimlaneFillColor=none;fontFamily=Permanent Marker;fontSize=23;points=[];verticalAlign=top;stackBorder=0;resizable=1;strokeWidth=2;sketch=1;disableMultiStroke=1;fillColor=#d5e8d4;strokeColor=#82b366;" parent="1" vertex="1">
          <mxGeometry x="1079.5" y="1514.0000000000002" width="180" height="352" as="geometry" />
        </mxCell>
        <object label="改造出入库流程" status="New" id="ZyWzrjSWjqfe_8rXAog0-133">
          <mxCell style="swimlane;strokeWidth=2;fontFamily=Permanent Marker;html=0;startSize=1;verticalAlign=bottom;spacingBottom=5;points=[];childLayout=stackLayout;stackBorder=20;stackSpacing=20;resizeLast=0;resizeParent=1;horizontalStack=0;collapsible=0;sketch=1;strokeColor=#82b366;fillStyle=solid;fillColor=#d5e8d4;fontSize=23;fontStyle=1" parent="ZyWzrjSWjqfe_8rXAog0-132" vertex="1">
            <mxGeometry y="28" width="180" height="325" as="geometry" />
          </mxCell>
        </object>
        <object label="&lt;div style=&quot;text-align: center&quot;&gt;&lt;span&gt;在保设备：&lt;/span&gt;&lt;/div&gt;ODM厂商维保设备必须是RMA备件,不校验维保商&lt;br&gt;OEM自维保设备必须是非RMA件，校验维保商&lt;br&gt;&lt;div style=&quot;text-align: center&quot;&gt;&lt;span&gt;过保设备：&lt;/span&gt;&lt;/div&gt;不校验" placeholders="1" id="ZyWzrjSWjqfe_8rXAog0-134">
          <mxCell style="whiteSpace=wrap;html=1;strokeWidth=2;fontStyle=1;spacingTop=0;rounded=1;arcSize=9;points=[];sketch=1;fontFamily=Permanent Marker;hachureGap=8;fillWeight=1;fontSize=19;fillColor=#d5e8d4;strokeColor=#82b366;align=left;fontColor=#000000;labelBackgroundColor=none;" parent="ZyWzrjSWjqfe_8rXAog0-133" vertex="1">
            <mxGeometry x="20" y="21" width="140" height="284" as="geometry" />
          </mxCell>
        </object>
        <mxCell id="ZyWzrjSWjqfe_8rXAog0-135" style="edgeStyle=orthogonalEdgeStyle;rounded=0;orthogonalLoop=1;jettySize=auto;html=1;entryX=0.313;entryY=0.991;entryDx=0;entryDy=0;entryPerimeter=0;fontSize=23;fontStyle=1;strokeWidth=4;" parent="1" edge="1">
          <mxGeometry relative="1" as="geometry">
            <mxPoint x="1351.5151515151515" y="2016.0500000000002" as="sourcePoint" />
            <mxPoint x="1352.1710000000003" y="1875.33" as="targetPoint" />
            <Array as="points">
              <mxPoint x="1352" y="1946.0500000000004" />
              <mxPoint x="1352" y="1946.0500000000004" />
            </Array>
          </mxGeometry>
        </mxCell>
        <mxCell id="ZyWzrjSWjqfe_8rXAog0-136" value="&lt;span style=&quot;font-size: 23px ; font-weight: 700&quot;&gt;维修流程&lt;/span&gt;&lt;br style=&quot;font-size: 23px ; font-weight: 700&quot;&gt;&lt;span style=&quot;font-size: 23px ; font-weight: 700&quot;&gt;备件申领&lt;/span&gt;&lt;br style=&quot;font-size: 23px ; font-weight: 700&quot;&gt;&lt;span style=&quot;font-size: 23px ; font-weight: 700&quot;&gt;部件出库&lt;/span&gt;" style="edgeLabel;html=1;align=center;verticalAlign=middle;resizable=0;points=[];" parent="ZyWzrjSWjqfe_8rXAog0-135" vertex="1" connectable="0">
          <mxGeometry x="0.2799" relative="1" as="geometry">
            <mxPoint y="11" as="offset" />
          </mxGeometry>
        </mxCell>
        <mxCell id="ZyWzrjSWjqfe_8rXAog0-137" value="" style="swimlane;fontStyle=3;childLayout=stackLayout;horizontal=1;startSize=28;horizontalStack=1;resizeParent=1;resizeParentMax=0;resizeLast=0;collapsible=0;marginBottom=0;swimlaneFillColor=none;fontFamily=Permanent Marker;fontSize=23;points=[];verticalAlign=top;stackBorder=0;resizable=1;strokeWidth=2;sketch=1;disableMultiStroke=1;fillColor=#d5e8d4;strokeColor=#82b366;" parent="1" vertex="1">
          <mxGeometry x="1293.5" y="1514.0000000000002" width="217" height="356" as="geometry" />
        </mxCell>
        <object label="自维保备件交付流程" status="New" id="ZyWzrjSWjqfe_8rXAog0-138">
          <mxCell style="swimlane;strokeWidth=2;fontFamily=Permanent Marker;html=0;startSize=1;verticalAlign=bottom;spacingBottom=5;points=[];childLayout=stackLayout;stackBorder=20;stackSpacing=20;resizeLast=0;resizeParent=1;horizontalStack=0;collapsible=0;sketch=1;strokeColor=#82b366;fillStyle=solid;fillColor=#d5e8d4;fontSize=23;fontStyle=1" parent="ZyWzrjSWjqfe_8rXAog0-137" vertex="1">
            <mxGeometry y="28" width="217" height="328" as="geometry" />
          </mxCell>
        </object>
        <object label="&lt;div style=&quot;text-align: center&quot;&gt;&lt;span&gt;备件交付&lt;/span&gt;&lt;/div&gt;&lt;span style=&quot;font-size: 19px ; font-style: normal ; letter-spacing: normal ; text-indent: 0px ; text-transform: none ; word-spacing: 0px ; display: inline ; float: none&quot;&gt;维修流程中，需要申领备件（出库操作），维修流程完成后，会进行备件返还（入库操作）&lt;/span&gt;" placeholders="1" id="ZyWzrjSWjqfe_8rXAog0-139">
          <mxCell style="whiteSpace=wrap;html=1;strokeWidth=2;fontStyle=1;spacingTop=0;rounded=1;arcSize=9;points=[];sketch=1;fontFamily=Permanent Marker;hachureGap=8;fillWeight=1;fontSize=19;fillColor=#d5e8d4;strokeColor=#82b366;align=left;fontColor=#000000;labelBackgroundColor=none;" parent="ZyWzrjSWjqfe_8rXAog0-138" vertex="1">
            <mxGeometry x="20" y="21" width="177" height="149" as="geometry" />
          </mxCell>
        </object>
        <object label="OEM厂商维保机器厂商带备件维修&lt;br&gt;ODM自维保机器发起部件报修RMA流程" placeholders="1" id="ZyWzrjSWjqfe_8rXAog0-140">
          <mxCell style="whiteSpace=wrap;html=1;strokeWidth=2;fontStyle=1;spacingTop=0;rounded=1;arcSize=9;points=[];sketch=1;fontFamily=Permanent Marker;hachureGap=8;fillWeight=1;fontSize=19;fillColor=#d5e8d4;strokeColor=#82b366;align=left;fontColor=#000000;labelBackgroundColor=none;" parent="ZyWzrjSWjqfe_8rXAog0-138" vertex="1">
            <mxGeometry x="20" y="190" width="177" height="118" as="geometry" />
          </mxCell>
        </object>
        <mxCell id="ZyWzrjSWjqfe_8rXAog0-141" style="edgeStyle=orthogonalEdgeStyle;rounded=0;orthogonalLoop=1;jettySize=auto;html=1;entryX=0.418;entryY=0.989;entryDx=0;entryDy=0;entryPerimeter=0;fontSize=23;fontStyle=1;strokeWidth=4;" parent="1" edge="1">
          <mxGeometry relative="1" as="geometry">
            <mxPoint x="1607.511111111111" y="2016.0500000000002" as="sourcePoint" />
            <mxPoint x="1608.2060000000001" y="1875.17" as="targetPoint" />
            <Array as="points">
              <mxPoint x="1610" y="2016.0500000000004" />
              <mxPoint x="1610" y="1946.0500000000004" />
              <mxPoint x="1608" y="1946.0500000000004" />
            </Array>
          </mxGeometry>
        </mxCell>
        <mxCell id="ZyWzrjSWjqfe_8rXAog0-142" value="&lt;span style=&quot;font-size: 23px ; font-weight: 700&quot;&gt;发起厂商维保&lt;/span&gt;&lt;br style=&quot;font-size: 23px ; font-weight: 700&quot;&gt;&lt;span style=&quot;font-size: 23px ; font-weight: 700&quot;&gt;报修坏件出库&lt;/span&gt;" style="edgeLabel;html=1;align=center;verticalAlign=middle;resizable=0;points=[];" parent="ZyWzrjSWjqfe_8rXAog0-141" vertex="1" connectable="0">
          <mxGeometry x="0.0268" relative="1" as="geometry">
            <mxPoint y="28" as="offset" />
          </mxGeometry>
        </mxCell>
        <mxCell id="ZyWzrjSWjqfe_8rXAog0-143" value="" style="swimlane;fontStyle=3;childLayout=stackLayout;horizontal=1;startSize=28;horizontalStack=1;resizeParent=1;resizeParentMax=0;resizeLast=0;collapsible=0;marginBottom=0;swimlaneFillColor=none;fontFamily=Permanent Marker;fontSize=23;points=[];verticalAlign=top;stackBorder=0;resizable=1;strokeWidth=2;sketch=1;disableMultiStroke=1;fillColor=#d5e8d4;strokeColor=#82b366;" parent="1" vertex="1">
          <mxGeometry x="1543.5" y="1514.0000000000002" width="240" height="360" as="geometry" />
        </mxCell>
        <object label="部件报修流程" status="New" id="ZyWzrjSWjqfe_8rXAog0-144">
          <mxCell style="swimlane;strokeWidth=2;fontFamily=Permanent Marker;html=0;startSize=1;verticalAlign=bottom;spacingBottom=5;points=[];childLayout=stackLayout;stackBorder=20;stackSpacing=20;resizeLast=0;resizeParent=1;horizontalStack=0;collapsible=0;sketch=1;strokeColor=#82b366;fillStyle=solid;fillColor=#d5e8d4;fontSize=23;fontStyle=1" parent="ZyWzrjSWjqfe_8rXAog0-143" vertex="1">
            <mxGeometry y="28" width="240" height="332" as="geometry" />
          </mxCell>
        </object>
        <object label="&lt;div style=&quot;text-align: center&quot;&gt;&lt;span&gt;RMA流程&lt;/span&gt;&lt;/div&gt;&lt;font style=&quot;font-size: 19px&quot;&gt;&lt;span style=&quot;font-size: 19px&quot;&gt;定时根据规则查询需要报修的部件,并发起RMA报修流程&lt;/span&gt;&lt;br&gt;&lt;/font&gt;" placeholders="1" id="ZyWzrjSWjqfe_8rXAog0-145">
          <mxCell style="whiteSpace=wrap;strokeWidth=2;fontStyle=1;spacingTop=0;rounded=1;arcSize=9;points=[];sketch=1;fontFamily=Permanent Marker;hachureGap=8;fillWeight=1;fontSize=19;fillColor=#d5e8d4;strokeColor=#82b366;html=1;verticalAlign=middle;align=left;fontColor=#000000;labelBackgroundColor=none;" parent="ZyWzrjSWjqfe_8rXAog0-144" vertex="1">
            <mxGeometry x="20" y="21" width="200" height="117" as="geometry" />
          </mxCell>
        </object>
        <object label="&lt;div style=&quot;text-align: center&quot;&gt;&lt;span&gt;RMA坏件删库：&lt;/span&gt;&lt;/div&gt;退回供应商置换&lt;br&gt;&lt;div style=&quot;text-align: center&quot;&gt;&lt;span&gt;RMA好件入库：&lt;/span&gt;&lt;/div&gt;RMA好件统一入央库&lt;br&gt;（深圳平湖中央备件库）" placeholders="1" id="ZyWzrjSWjqfe_8rXAog0-146">
          <mxCell style="whiteSpace=wrap;html=1;strokeWidth=2;fontStyle=1;spacingTop=0;rounded=1;arcSize=9;points=[];sketch=1;fontFamily=Permanent Marker;hachureGap=8;fillWeight=1;fontSize=19;fillColor=#d5e8d4;strokeColor=#82b366;align=left;fontColor=#000000;labelBackgroundColor=none;" parent="ZyWzrjSWjqfe_8rXAog0-144" vertex="1">
            <mxGeometry x="20" y="158" width="200" height="136" as="geometry" />
          </mxCell>
        </object>
        <mxCell id="ZyWzrjSWjqfe_8rXAog0-147" style="edgeStyle=orthogonalEdgeStyle;rounded=0;orthogonalLoop=1;jettySize=auto;html=1;entryX=0.5;entryY=1;entryDx=0;entryDy=0;fontSize=23;fontStyle=1;strokeWidth=4;" parent="1" edge="1">
          <mxGeometry relative="1" as="geometry">
            <mxPoint x="1869.5555555555552" y="2016.0500000000002" as="sourcePoint" />
            <mxPoint x="1869.5" y="1876.0500000000002" as="targetPoint" />
            <Array as="points">
              <mxPoint x="1870" y="1946.0500000000004" />
            </Array>
          </mxGeometry>
        </mxCell>
        <mxCell id="ZyWzrjSWjqfe_8rXAog0-148" value="&lt;span style=&quot;font-size: 23px ; font-weight: 700&quot;&gt;利旧测试&lt;/span&gt;&lt;br style=&quot;font-size: 23px ; font-weight: 700&quot;&gt;&lt;span style=&quot;font-size: 23px ; font-weight: 700&quot;&gt;部件出库&lt;/span&gt;" style="edgeLabel;html=1;align=center;verticalAlign=middle;resizable=0;points=[];" parent="ZyWzrjSWjqfe_8rXAog0-147" vertex="1" connectable="0">
          <mxGeometry x="0.1007" y="2" relative="1" as="geometry">
            <mxPoint y="1" as="offset" />
          </mxGeometry>
        </mxCell>
        <mxCell id="ZyWzrjSWjqfe_8rXAog0-149" value="" style="swimlane;fontStyle=3;childLayout=stackLayout;horizontal=1;startSize=28;horizontalStack=1;resizeParent=1;resizeParentMax=0;resizeLast=0;collapsible=0;marginBottom=0;swimlaneFillColor=none;fontFamily=Permanent Marker;fontSize=23;points=[];verticalAlign=top;stackBorder=0;resizable=1;strokeWidth=2;sketch=1;disableMultiStroke=1;fillColor=#d5e8d4;strokeColor=#82b366;" parent="1" vertex="1">
          <mxGeometry x="1821.5" y="1514.0000000000002" width="240" height="364" as="geometry" />
        </mxCell>
        <object label="利旧部件测试流程" status="New" id="ZyWzrjSWjqfe_8rXAog0-150">
          <mxCell style="swimlane;strokeWidth=2;fontFamily=Permanent Marker;html=0;startSize=1;verticalAlign=bottom;spacingBottom=5;points=[];childLayout=stackLayout;stackBorder=20;stackSpacing=20;resizeLast=0;resizeParent=1;horizontalStack=0;collapsible=0;sketch=1;strokeColor=#82b366;fillStyle=solid;fillColor=#d5e8d4;fontSize=23;fontStyle=1" parent="ZyWzrjSWjqfe_8rXAog0-149" vertex="1">
            <mxGeometry y="28" width="240" height="336" as="geometry" />
          </mxCell>
        </object>
        <object label="&lt;div style=&quot;text-align: center&quot;&gt;&lt;span&gt;利旧部件测试：&lt;/span&gt;&lt;/div&gt;&lt;span style=&quot;font-size: 19px ; font-style: normal ; letter-spacing: normal ; text-indent: 0px ; text-transform: none ; word-spacing: 0px ; display: inline ; float: none&quot;&gt;过保服务器上可用部件做拆解、测试，以支持现网过保服务器故障&lt;/span&gt;" placeholders="1" id="ZyWzrjSWjqfe_8rXAog0-151">
          <mxCell style="whiteSpace=wrap;html=1;strokeWidth=2;fontStyle=1;spacingTop=0;rounded=1;arcSize=9;points=[];sketch=1;fontFamily=Permanent Marker;hachureGap=8;fillWeight=1;fontSize=19;fillColor=#d5e8d4;strokeColor=#82b366;align=left;fontColor=#000000;labelBackgroundColor=none;" parent="ZyWzrjSWjqfe_8rXAog0-150" vertex="1">
            <mxGeometry x="20" y="21" width="200" height="109" as="geometry" />
          </mxCell>
        </object>
        <object label="&lt;span style=&quot;font-size: 19px&quot;&gt;好件备件库重复利用&lt;/span&gt;&lt;br style=&quot;font-size: 19px&quot;&gt;&lt;span style=&quot;font-size: 19px&quot;&gt;坏部件报废销毁、回收商处理&lt;/span&gt;&lt;br style=&quot;font-size: 19px&quot;&gt;&lt;span style=&quot;font-size: 19px&quot;&gt;坏硬盘走硬盘销毁&lt;/span&gt;" placeholders="1" id="ZyWzrjSWjqfe_8rXAog0-152">
          <mxCell style="whiteSpace=wrap;html=1;strokeWidth=2;fontStyle=1;spacingTop=0;rounded=1;arcSize=9;points=[];sketch=1;fontFamily=Permanent Marker;hachureGap=8;fillWeight=1;fontSize=19;fillColor=#d5e8d4;strokeColor=#82b366;align=left;fontColor=#000000;labelBackgroundColor=none;" parent="ZyWzrjSWjqfe_8rXAog0-150" vertex="1">
            <mxGeometry x="20" y="150" width="200" height="136" as="geometry" />
          </mxCell>
        </object>
        <mxCell id="ZyWzrjSWjqfe_8rXAog0-153" value="" style="swimlane;fontStyle=3;childLayout=stackLayout;horizontal=1;startSize=28;horizontalStack=1;resizeParent=1;resizeParentMax=0;resizeLast=0;collapsible=0;marginBottom=0;swimlaneFillColor=none;fontFamily=Permanent Marker;fontSize=23;points=[];verticalAlign=top;stackBorder=0;resizable=1;strokeWidth=2;sketch=1;disableMultiStroke=1;fillColor=#d5e8d4;strokeColor=#82b366;" parent="1" vertex="1">
          <mxGeometry x="2089" y="1510.0000000000002" width="240" height="372" as="geometry" />
        </mxCell>
        <object label="硬盘销毁流程" status="New" id="ZyWzrjSWjqfe_8rXAog0-154">
          <mxCell style="swimlane;strokeWidth=2;fontFamily=Permanent Marker;html=0;startSize=1;verticalAlign=bottom;spacingBottom=5;points=[];childLayout=stackLayout;stackBorder=20;stackSpacing=20;resizeLast=0;resizeParent=1;horizontalStack=0;collapsible=0;sketch=1;strokeColor=#82b366;fillStyle=solid;fillColor=#d5e8d4;fontSize=23;fontStyle=1" parent="ZyWzrjSWjqfe_8rXAog0-153" vertex="1">
            <mxGeometry y="28" width="240" height="344" as="geometry" />
          </mxCell>
        </object>
        <object label="硬盘销毁：&lt;br&gt;硬盘退役不可用后&lt;br&gt;运营定时或手动发起硬盘销毁流程&lt;span style=&quot;color: rgba(0 , 0 , 0 , 0) ; font-family: monospace ; font-size: 0px&quot;&gt;%3CmxGraphModel%3E%3Croot%3E%3CmxCell%20id%3D%220%22%2F%3E%3CmxCell%20id%3D%221%22%20parent%3D%220%22%2F%3E%3Cobject%20label%3D%22%E8%BF%90%E8%90%A5%E3%80%81%E5%BC%80%E5%8F%91%EF%BC%9A%26lt%3Bbr%26gt%3B%E5%8F%91%E8%B5%B7%E5%88%A9%E6%97%A7%E6%8B%86%E5%8D%B8%26lt%3Bbr%26gt%3B%E9%83%A8%E4%BB%B6%E6%B5%8B%E8%AF%95%E6%B5%81%E7%A8%8B%22%20placeholders%3D%221%22%20id%3D%222%22%3E%3CmxCell%20style%3D%22whiteSpace%3Dwrap%3Bhtml%3D1%3BstrokeWidth%3D2%3BfontStyle%3D1%3BspacingTop%3D0%3Brounded%3D1%3BarcSize%3D9%3Bpoints%3D%5B%5D%3Bsketch%3D1%3BfontFamily%3DPermanent%20Marker%3BhachureGap%3D8%3BfillWeight%3D1%3BfontSize%3D19%3BfillColor%3D%23d5e8d4%3BstrokeColor%3D%2382b366%3B%22%20vertex%3D%221%22%20parent%3D%221%22%3E%3CmxGeometry%20x%3D%222270%22%20y%3D%22129%22%20width%3D%22190%22%20height%3D%22129%22%20as%3D%22geometry%22%2F%3E%3C%2FmxCell%3E%3C%2Fobject%3E%3C%2Froot%3E%3C%2FmxGraphModel%3E&lt;/span&gt;" placeholders="1" id="ZyWzrjSWjqfe_8rXAog0-155">
          <mxCell style="whiteSpace=wrap;html=1;strokeWidth=2;fontStyle=1;spacingTop=0;rounded=1;arcSize=9;points=[];sketch=1;fontFamily=Permanent Marker;hachureGap=8;fillWeight=1;fontSize=19;fillColor=#d5e8d4;strokeColor=#82b366;" parent="ZyWzrjSWjqfe_8rXAog0-154" vertex="1">
            <mxGeometry x="20" y="21" width="200" height="129" as="geometry" />
          </mxCell>
        </object>
        <object label="&lt;div style=&quot;text-align: center&quot;&gt;&lt;span&gt;销毁工厂：&lt;/span&gt;&lt;/div&gt;智能放盘&lt;br style=&quot;font-size: 19px&quot;&gt;扫描、拍照&lt;br style=&quot;font-size: 19px&quot;&gt;（HDD）消磁粉碎" placeholders="1" id="ZyWzrjSWjqfe_8rXAog0-156">
          <mxCell style="whiteSpace=wrap;html=1;strokeWidth=2;fontStyle=1;spacingTop=0;rounded=1;arcSize=9;points=[];sketch=1;fontFamily=Permanent Marker;hachureGap=8;fillWeight=1;fontSize=19;fillColor=#d5e8d4;strokeColor=#82b366;align=left;fontColor=#000000;labelBackgroundColor=none;" parent="ZyWzrjSWjqfe_8rXAog0-154" vertex="1">
            <mxGeometry x="20" y="170" width="200" height="136" as="geometry" />
          </mxCell>
        </object>
        <mxCell id="ZyWzrjSWjqfe_8rXAog0-157" value="手工出库" style="edgeStyle=orthogonalEdgeStyle;rounded=0;orthogonalLoop=1;jettySize=auto;html=1;entryX=0.939;entryY=0.991;entryDx=0;entryDy=0;entryPerimeter=0;fontSize=23;fontStyle=1;strokeWidth=4;" parent="1" edge="1">
          <mxGeometry relative="1" as="geometry">
            <mxPoint x="2684.021276595744" y="2016.0500000000002" as="sourcePoint" />
            <mxPoint x="2683.5499999999993" y="1875.33" as="targetPoint" />
            <Array as="points">
              <mxPoint x="2684" y="1985.0500000000004" />
              <mxPoint x="2684" y="1985.0500000000004" />
            </Array>
          </mxGeometry>
        </mxCell>
        <mxCell id="ZyWzrjSWjqfe_8rXAog0-158" value="" style="swimlane;fontStyle=3;childLayout=stackLayout;horizontal=1;startSize=28;horizontalStack=1;resizeParent=1;resizeParentMax=0;resizeLast=0;collapsible=0;marginBottom=0;swimlaneFillColor=none;fontFamily=Permanent Marker;fontSize=23;points=[];verticalAlign=top;stackBorder=0;resizable=1;strokeWidth=2;sketch=1;disableMultiStroke=1;fillColor=#d5e8d4;strokeColor=#82b366;" parent="1" vertex="1">
          <mxGeometry x="2620" y="1514.0000000000002" width="240" height="360" as="geometry" />
        </mxCell>
        <object label="部件手工出入库流程" status="New" id="ZyWzrjSWjqfe_8rXAog0-159">
          <mxCell style="swimlane;strokeWidth=2;fontFamily=Permanent Marker;html=0;startSize=1;verticalAlign=bottom;spacingBottom=5;points=[];childLayout=stackLayout;stackBorder=20;stackSpacing=20;resizeLast=0;resizeParent=1;horizontalStack=0;collapsible=0;sketch=1;strokeColor=#82b366;fillStyle=solid;fillColor=#d5e8d4;fontSize=23;fontStyle=1" parent="ZyWzrjSWjqfe_8rXAog0-158" vertex="1">
            <mxGeometry y="28" width="240" height="333" as="geometry" />
          </mxCell>
        </object>
        <object label="&lt;div style=&quot;text-align: center&quot;&gt;&lt;span&gt;手工出入库：&lt;/span&gt;&lt;/div&gt;&lt;span style=&quot;font-size: 19px&quot;&gt;各个场景（领用出库、改造、报废）下的运营人员手工提单操作出入库&lt;/span&gt;&lt;span style=&quot;font-size: 19px&quot;&gt;&lt;br style=&quot;font-size: 19px&quot;&gt;&lt;/span&gt;" placeholders="1" id="ZyWzrjSWjqfe_8rXAog0-160">
          <mxCell style="whiteSpace=wrap;html=1;strokeWidth=2;fontStyle=1;spacingTop=0;rounded=1;arcSize=9;points=[];sketch=1;fontFamily=Permanent Marker;hachureGap=8;fillWeight=1;fontSize=19;fillColor=#d5e8d4;strokeColor=#82b366;align=left;fontColor=#000000;labelBackgroundColor=none;" parent="ZyWzrjSWjqfe_8rXAog0-159" vertex="1">
            <mxGeometry x="20" y="21" width="200" height="136" as="geometry" />
          </mxCell>
        </object>
        <object label="&lt;div style=&quot;&quot;&gt;&lt;span&gt;业务场景：&lt;/span&gt;&lt;/div&gt;领用出库、&lt;br&gt;报废出库、&lt;br&gt;手工入库" placeholders="1" id="ZyWzrjSWjqfe_8rXAog0-161">
          <mxCell style="whiteSpace=wrap;html=1;strokeWidth=2;fontStyle=1;spacingTop=0;rounded=1;arcSize=9;points=[];sketch=1;fontFamily=Permanent Marker;hachureGap=8;fillWeight=1;fontSize=19;fillColor=#d5e8d4;strokeColor=#82b366;align=center;fontColor=#000000;labelBackgroundColor=none;" parent="ZyWzrjSWjqfe_8rXAog0-159" vertex="1">
            <mxGeometry x="20" y="177" width="200" height="136" as="geometry" />
          </mxCell>
        </object>
        <mxCell id="ZyWzrjSWjqfe_8rXAog0-162" style="edgeStyle=orthogonalEdgeStyle;rounded=0;orthogonalLoop=1;jettySize=auto;html=1;entryX=0.815;entryY=-0.001;entryDx=0;entryDy=0;entryPerimeter=0;fontSize=23;dashed=1;fontStyle=1;strokeWidth=4;" parent="1" edge="1">
          <mxGeometry relative="1" as="geometry">
            <Array as="points">
              <mxPoint x="988" y="1946.0500000000004" />
              <mxPoint x="988" y="1946.0500000000004" />
            </Array>
            <mxPoint x="988" y="1876.0500000000002" as="sourcePoint" />
            <mxPoint x="988.1999999999998" y="2015.6970000000001" as="targetPoint" />
          </mxGeometry>
        </mxCell>
        <mxCell id="ZyWzrjSWjqfe_8rXAog0-163" value="调拨入库" style="edgeLabel;html=1;align=center;verticalAlign=middle;resizable=0;points=[];fontSize=23;fontStyle=1" parent="ZyWzrjSWjqfe_8rXAog0-162" vertex="1" connectable="0">
          <mxGeometry x="-0.0412" y="1" relative="1" as="geometry">
            <mxPoint y="18" as="offset" />
          </mxGeometry>
        </mxCell>
        <mxCell id="ZyWzrjSWjqfe_8rXAog0-164" style="edgeStyle=orthogonalEdgeStyle;rounded=0;orthogonalLoop=1;jettySize=auto;html=1;entryX=0.5;entryY=1;entryDx=0;entryDy=0;entryPerimeter=0;fontSize=23;fontStyle=1;strokeWidth=4;" parent="1" edge="1">
          <mxGeometry relative="1" as="geometry">
            <mxPoint x="1439.0256410256407" y="2171.95" as="sourcePoint" />
            <mxPoint x="1439" y="2101.95" as="targetPoint" />
            <Array as="points">
              <mxPoint x="1439" y="2151.95" />
              <mxPoint x="1439" y="2151.95" />
            </Array>
          </mxGeometry>
        </mxCell>
        <mxCell id="ZyWzrjSWjqfe_8rXAog0-165" value="出库" style="edgeLabel;html=1;align=center;verticalAlign=middle;resizable=0;points=[];fontSize=35;fontStyle=1" parent="ZyWzrjSWjqfe_8rXAog0-164" vertex="1" connectable="0">
          <mxGeometry x="0.2267" y="1" relative="1" as="geometry">
            <mxPoint x="-39" y="11" as="offset" />
          </mxGeometry>
        </mxCell>
        <mxCell id="ZyWzrjSWjqfe_8rXAog0-166" value="&lt;font style=&quot;font-size: 35px;&quot;&gt;&lt;span style=&quot;font-size: 35px;&quot;&gt;备件出入库服务&lt;/span&gt;&lt;/font&gt;" style="rounded=0;whiteSpace=wrap;html=1;fillColor=#d5e8d4;strokeColor=#82b366;fontStyle=1;fontSize=35;" parent="1" vertex="1">
          <mxGeometry x="626" y="2017.95" width="2250" height="80" as="geometry" />
        </mxCell>
        <mxCell id="ZyWzrjSWjqfe_8rXAog0-167" style="edgeStyle=orthogonalEdgeStyle;rounded=0;orthogonalLoop=1;jettySize=auto;html=1;entryX=0.534;entryY=0.005;entryDx=0;entryDy=0;entryPerimeter=0;fontSize=23;fontStyle=1;dashed=1;strokeWidth=4;" parent="1" edge="1">
          <mxGeometry relative="1" as="geometry">
            <mxPoint x="2008.292682926829" y="2101.95" as="sourcePoint" />
            <mxPoint x="2008.3000000000002" y="2172.3500000000004" as="targetPoint" />
            <Array as="points">
              <mxPoint x="2008" y="2136.95" />
              <mxPoint x="2008" y="2136.95" />
            </Array>
          </mxGeometry>
        </mxCell>
        <mxCell id="ZyWzrjSWjqfe_8rXAog0-168" value="入库" style="edgeLabel;html=1;align=center;verticalAlign=middle;resizable=0;points=[];fontSize=35;fontStyle=1" parent="ZyWzrjSWjqfe_8rXAog0-167" vertex="1" connectable="0">
          <mxGeometry x="-0.362" relative="1" as="geometry">
            <mxPoint x="41" y="9" as="offset" />
          </mxGeometry>
        </mxCell>
        <mxCell id="ZyWzrjSWjqfe_8rXAog0-169" value="备件库ERSD-R" style="shape=cylinder3;whiteSpace=wrap;html=1;boundedLbl=1;backgroundOutline=1;size=15;fontSize=35;fontStyle=1;fillColor=#d5e8d4;strokeColor=#82b366;" parent="1" vertex="1">
          <mxGeometry x="636" y="2176.95" width="2249" height="120" as="geometry" />
        </mxCell>
        <mxCell id="ZyWzrjSWjqfe_8rXAog0-170" value="" style="endArrow=classic;html=1;rounded=0;fontSize=23;entryX=0.717;entryY=0;entryDx=0;entryDy=0;entryPerimeter=0;dashed=1;fontStyle=1;strokeWidth=4;" parent="1" edge="1">
          <mxGeometry width="50" height="50" relative="1" as="geometry">
            <mxPoint x="2785" y="1876.0500000000002" as="sourcePoint" />
            <mxPoint x="2785.08" y="2016.0500000000002" as="targetPoint" />
          </mxGeometry>
        </mxCell>
        <mxCell id="ZyWzrjSWjqfe_8rXAog0-171" value="&lt;span style=&quot;color: rgba(0 , 0 , 0 , 0) ; font-family: monospace ; font-size: 0px&quot;&gt;%3CmxGraphModel%3E%3Croot%3E%3CmxCell%20id%3D%220%22%2F%3E%3CmxCell%20id%3D%221%22%20parent%3D%220%22%2F%3E%3CmxCell%20id%3D%222%22%20value%3D%22%E6%89%8B%E5%B7%A5%E5%85%A5%E5%BA%93%22%20style%3D%22edgeLabel%3Bhtml%3D1%3Balign%3Dcenter%3BverticalAlign%3Dmiddle%3Bresizable%3D0%3Bpoints%3D%5B%5D%3BfontSize%3D23%3BfontStyle%3D1%22%20vertex%3D%221%22%20connectable%3D%220%22%20parent%3D%221%22%3E%3CmxGeometry%20x%3D%222253.955070162857%22%20y%3D%221796.0500994678373%22%20as%3D%22geometry%22%2F%3E%3C%2FmxCell%3E%3C%2Froot%3E%3C%2FmxGraphModel%3E&lt;/span&gt;" style="edgeLabel;html=1;align=center;verticalAlign=middle;resizable=0;points=[];" parent="ZyWzrjSWjqfe_8rXAog0-170" vertex="1" connectable="0">
          <mxGeometry x="-0.115" y="-5" relative="1" as="geometry">
            <mxPoint as="offset" />
          </mxGeometry>
        </mxCell>
        <mxCell id="ZyWzrjSWjqfe_8rXAog0-172" value="&lt;span style=&quot;font-size: 23px ; font-weight: 700&quot;&gt;手工入库&lt;/span&gt;" style="edgeLabel;html=1;align=center;verticalAlign=middle;resizable=0;points=[];" parent="ZyWzrjSWjqfe_8rXAog0-170" vertex="1" connectable="0">
          <mxGeometry x="-0.4007" y="-1" relative="1" as="geometry">
            <mxPoint as="offset" />
          </mxGeometry>
        </mxCell>
        <mxCell id="ZyWzrjSWjqfe_8rXAog0-173" value="" style="endArrow=classic;html=1;rounded=0;fontSize=23;entryX=0.825;entryY=0.001;entryDx=0;entryDy=0;entryPerimeter=0;dashed=1;fontStyle=1;strokeWidth=4;" parent="1" edge="1">
          <mxGeometry width="50" height="50" relative="1" as="geometry">
            <mxPoint x="2007.5" y="1876.0500000000002" as="sourcePoint" />
            <mxPoint x="2007" y="2017.1000000000004" as="targetPoint" />
          </mxGeometry>
        </mxCell>
        <mxCell id="ZyWzrjSWjqfe_8rXAog0-174" value="&lt;span style=&quot;font-size: 23px ; font-weight: 700&quot;&gt;测试通过&lt;/span&gt;&lt;br style=&quot;font-size: 23px ; font-weight: 700&quot;&gt;&lt;span style=&quot;font-size: 23px ; font-weight: 700&quot;&gt;部件入库&lt;/span&gt;" style="edgeLabel;html=1;align=center;verticalAlign=middle;resizable=0;points=[];" parent="ZyWzrjSWjqfe_8rXAog0-173" vertex="1" connectable="0">
          <mxGeometry x="-0.0363" y="-3" relative="1" as="geometry">
            <mxPoint as="offset" />
          </mxGeometry>
        </mxCell>
        <mxCell id="ZyWzrjSWjqfe_8rXAog0-175" value="" style="endArrow=classic;html=1;rounded=0;fontSize=23;entryX=0.825;entryY=0.001;entryDx=0;entryDy=0;entryPerimeter=0;dashed=1;fontStyle=1;strokeWidth=4;" parent="1" edge="1">
          <mxGeometry width="50" height="50" relative="1" as="geometry">
            <mxPoint x="1733.5" y="1876.0500000000002" as="sourcePoint" />
            <mxPoint x="1733" y="2017.1000000000004" as="targetPoint" />
          </mxGeometry>
        </mxCell>
        <mxCell id="ZyWzrjSWjqfe_8rXAog0-176" value="&lt;span style=&quot;font-size: 23px ; font-weight: 700&quot;&gt;厂商维保结束&lt;br&gt;返回好件&lt;/span&gt;&lt;span style=&quot;font-size: 23px ; font-weight: 700&quot;&gt;入库&lt;/span&gt;" style="edgeLabel;html=1;align=center;verticalAlign=middle;resizable=0;points=[];" parent="ZyWzrjSWjqfe_8rXAog0-175" vertex="1" connectable="0">
          <mxGeometry x="-0.4049" y="-5" relative="1" as="geometry">
            <mxPoint as="offset" />
          </mxGeometry>
        </mxCell>
        <mxCell id="ZyWzrjSWjqfe_8rXAog0-177" value="" style="endArrow=classic;html=1;rounded=0;fontSize=23;entryX=0.825;entryY=0.001;entryDx=0;entryDy=0;entryPerimeter=0;dashed=1;fontStyle=1;strokeWidth=4;" parent="1" edge="1">
          <mxGeometry width="50" height="50" relative="1" as="geometry">
            <mxPoint x="1451.5" y="1876.0500000000002" as="sourcePoint" />
            <mxPoint x="1451" y="2017.1000000000004" as="targetPoint" />
          </mxGeometry>
        </mxCell>
        <mxCell id="ZyWzrjSWjqfe_8rXAog0-178" value="&lt;span style=&quot;font-size: 23px ; font-weight: 700&quot;&gt;维修完成&lt;br&gt;备件返还&lt;/span&gt;&lt;br style=&quot;font-size: 23px ; font-weight: 700&quot;&gt;&lt;span style=&quot;font-size: 23px ; font-weight: 700&quot;&gt;部件入库&lt;/span&gt;" style="edgeLabel;html=1;align=center;verticalAlign=middle;resizable=0;points=[];" parent="ZyWzrjSWjqfe_8rXAog0-177" vertex="1" connectable="0">
          <mxGeometry x="-0.3203" y="5" relative="1" as="geometry">
            <mxPoint y="36" as="offset" />
          </mxGeometry>
        </mxCell>
        <mxCell id="ZyWzrjSWjqfe_8rXAog0-179" value="" style="endArrow=classic;html=1;rounded=0;fontSize=23;entryX=0.825;entryY=0.001;entryDx=0;entryDy=0;entryPerimeter=0;dashed=1;fontStyle=1;strokeWidth=4;" parent="1" edge="1">
          <mxGeometry width="50" height="50" relative="1" as="geometry">
            <mxPoint x="1217.5" y="1875" as="sourcePoint" />
            <mxPoint x="1217" y="2016.0500000000002" as="targetPoint" />
          </mxGeometry>
        </mxCell>
        <mxCell id="ZyWzrjSWjqfe_8rXAog0-180" value="" style="swimlane;fontStyle=3;childLayout=stackLayout;horizontal=1;startSize=28;horizontalStack=1;resizeParent=1;resizeParentMax=0;resizeLast=0;collapsible=0;marginBottom=0;swimlaneFillColor=none;fontFamily=Permanent Marker;fontSize=23;points=[];verticalAlign=top;stackBorder=0;resizable=1;strokeWidth=2;sketch=1;disableMultiStroke=1;fillColor=#d5e8d4;strokeColor=#82b366;" parent="1" vertex="1">
          <mxGeometry x="2355" y="1512.0000000000002" width="240" height="363" as="geometry" />
        </mxCell>
        <object label="部件报废流程" status="New" id="ZyWzrjSWjqfe_8rXAog0-181">
          <mxCell style="swimlane;strokeWidth=2;fontFamily=Permanent Marker;html=0;startSize=1;verticalAlign=bottom;spacingBottom=5;points=[];childLayout=stackLayout;stackBorder=20;stackSpacing=20;resizeLast=0;resizeParent=1;horizontalStack=0;collapsible=0;sketch=1;strokeColor=#82b366;fillStyle=solid;fillColor=#d5e8d4;fontSize=23;fontStyle=1" parent="ZyWzrjSWjqfe_8rXAog0-180" vertex="1">
            <mxGeometry y="28" width="240" height="335" as="geometry" />
          </mxCell>
        </object>
        <object label="&lt;div style=&quot;text-align: center&quot;&gt;&lt;span&gt;备件资产删除&lt;/span&gt;&lt;/div&gt;回收商绿色回收坏件" placeholders="1" id="ZyWzrjSWjqfe_8rXAog0-182">
          <mxCell style="whiteSpace=wrap;html=1;strokeWidth=2;fontStyle=1;spacingTop=0;rounded=1;arcSize=9;points=[];sketch=1;fontFamily=Permanent Marker;hachureGap=8;fillWeight=1;fontSize=19;fillColor=#d5e8d4;strokeColor=#82b366;align=left;fontColor=#000000;labelBackgroundColor=none;" parent="ZyWzrjSWjqfe_8rXAog0-181" vertex="1">
            <mxGeometry x="20" y="21" width="200" height="136" as="geometry" />
          </mxCell>
        </object>
        <mxCell id="ZyWzrjSWjqfe_8rXAog0-183" style="edgeStyle=orthogonalEdgeStyle;rounded=0;orthogonalLoop=1;jettySize=auto;html=1;fontSize=23;exitX=0.491;exitY=-0.002;exitDx=0;exitDy=0;exitPerimeter=0;fontStyle=1;strokeWidth=4;" parent="1" edge="1">
          <mxGeometry relative="1" as="geometry">
            <mxPoint x="903.3800000000001" y="2012.344" as="sourcePoint" />
            <Array as="points">
              <mxPoint x="903" y="1943.0500000000004" />
              <mxPoint x="903" y="1943.0500000000004" />
              <mxPoint x="903" y="1891.0500000000004" />
            </Array>
            <mxPoint x="903" y="1878.0500000000002" as="targetPoint" />
          </mxGeometry>
        </mxCell>
        <mxCell id="ZyWzrjSWjqfe_8rXAog0-184" value="&lt;span style=&quot;font-family: &amp;#34;helvetica&amp;#34; ; font-size: 23px&quot;&gt;调拨出库&lt;/span&gt;" style="edgeLabel;html=1;align=center;verticalAlign=middle;resizable=0;points=[];fontSize=23;fontStyle=1" parent="ZyWzrjSWjqfe_8rXAog0-183" vertex="1" connectable="0">
          <mxGeometry x="0.2212" y="-1" relative="1" as="geometry">
            <mxPoint y="-16" as="offset" />
          </mxGeometry>
        </mxCell>
        <mxCell id="ZyWzrjSWjqfe_8rXAog0-185" style="edgeStyle=orthogonalEdgeStyle;rounded=0;orthogonalLoop=1;jettySize=auto;html=1;fontSize=23;exitX=0.491;exitY=-0.002;exitDx=0;exitDy=0;exitPerimeter=0;fontStyle=1;strokeWidth=4;" parent="1" edge="1">
          <mxGeometry relative="1" as="geometry">
            <mxPoint x="1125.38" y="2013.344" as="sourcePoint" />
            <Array as="points">
              <mxPoint x="1125" y="1944.0500000000004" />
              <mxPoint x="1125" y="1944.0500000000004" />
              <mxPoint x="1125" y="1892.0500000000004" />
            </Array>
            <mxPoint x="1125" y="1879.0500000000002" as="targetPoint" />
          </mxGeometry>
        </mxCell>
        <mxCell id="ZyWzrjSWjqfe_8rXAog0-186" value="改造减配&lt;br style=&quot;font-size: 23px&quot;&gt;换下备件&lt;br&gt;部件入库" style="edgeLabel;html=1;align=center;verticalAlign=middle;resizable=0;points=[];fontSize=23;fontStyle=1" parent="ZyWzrjSWjqfe_8rXAog0-185" vertex="1" connectable="0">
          <mxGeometry x="-0.0648" relative="1" as="geometry">
            <mxPoint x="97" y="3" as="offset" />
          </mxGeometry>
        </mxCell>
        <mxCell id="ZyWzrjSWjqfe_8rXAog0-187" value="&lt;span style=&quot;font-size: 23px ; font-weight: 700&quot;&gt;改造扩容&lt;/span&gt;&lt;br style=&quot;font-size: 23px ; font-weight: 700&quot;&gt;&lt;span style=&quot;font-size: 23px ; font-weight: 700&quot;&gt;换上备件&lt;/span&gt;&lt;br style=&quot;font-size: 23px ; font-weight: 700&quot;&gt;&lt;span style=&quot;font-size: 23px ; font-weight: 700&quot;&gt;部件出库&lt;/span&gt;" style="edgeLabel;html=1;align=center;verticalAlign=middle;resizable=0;points=[];" parent="ZyWzrjSWjqfe_8rXAog0-185" vertex="1" connectable="0">
          <mxGeometry x="0.1222" y="1" relative="1" as="geometry">
            <mxPoint x="-14" y="1" as="offset" />
          </mxGeometry>
        </mxCell>
        <mxCell id="ZyWzrjSWjqfe_8rXAog0-188" value="注：整机生命周期中，红色节点表示涉及部件出入库" style="text;html=1;strokeColor=none;fillColor=none;align=center;verticalAlign=middle;whiteSpace=wrap;rounded=0;fontSize=30;fontStyle=1" parent="1" vertex="1">
          <mxGeometry x="-286" y="-240" width="706" height="30" as="geometry" />
        </mxCell>
        <mxCell id="ZyWzrjSWjqfe_8rXAog0-189" style="edgeStyle=orthogonalEdgeStyle;rounded=0;orthogonalLoop=1;jettySize=auto;html=1;entryX=0.052;entryY=0.006;entryDx=0;entryDy=0;entryPerimeter=0;dashed=1;strokeWidth=4;" parent="1" target="ZyWzrjSWjqfe_8rXAog0-166" edge="1">
          <mxGeometry relative="1" as="geometry">
            <mxPoint x="741.5" y="1865" as="sourcePoint" />
          </mxGeometry>
        </mxCell>
        <mxCell id="ZyWzrjSWjqfe_8rXAog0-190" value="&lt;span style=&quot;font-size: 23px ; font-weight: 700&quot;&gt;采购入库&lt;/span&gt;" style="edgeLabel;html=1;align=center;verticalAlign=middle;resizable=0;points=[];" parent="ZyWzrjSWjqfe_8rXAog0-189" vertex="1" connectable="0">
          <mxGeometry x="-0.1064" y="7" relative="1" as="geometry">
            <mxPoint as="offset" />
          </mxGeometry>
        </mxCell>
        <mxCell id="ZyWzrjSWjqfe_8rXAog0-191" style="edgeStyle=orthogonalEdgeStyle;rounded=0;orthogonalLoop=1;jettySize=auto;html=1;entryX=0.5;entryY=1;entryDx=0;entryDy=0;fontSize=23;fontStyle=1;strokeWidth=4;" parent="1" edge="1">
          <mxGeometry relative="1" as="geometry">
            <mxPoint x="2463.0555555555547" y="2015.9500000000007" as="sourcePoint" />
            <mxPoint x="2463" y="1875.9500000000007" as="targetPoint" />
            <Array as="points">
              <mxPoint x="2463.5" y="1945.9500000000005" />
            </Array>
          </mxGeometry>
        </mxCell>
        <mxCell id="ZyWzrjSWjqfe_8rXAog0-192" value="利旧测试完&lt;br&gt;非硬盘部件无法利用&lt;br&gt;报废出库" style="edgeLabel;html=1;align=center;verticalAlign=middle;resizable=0;points=[];fontSize=23;fontStyle=1" parent="ZyWzrjSWjqfe_8rXAog0-191" vertex="1" connectable="0">
          <mxGeometry x="-0.0442" relative="1" as="geometry">
            <mxPoint y="4" as="offset" />
          </mxGeometry>
        </mxCell>
        <mxCell id="ZyWzrjSWjqfe_8rXAog0-193" style="edgeStyle=orthogonalEdgeStyle;rounded=0;orthogonalLoop=1;jettySize=auto;html=1;entryX=0.5;entryY=1;entryDx=0;entryDy=0;fontSize=23;fontStyle=1;strokeWidth=4;" parent="1" edge="1">
          <mxGeometry relative="1" as="geometry">
            <mxPoint x="2205.0555555555547" y="2021.9499999999998" as="sourcePoint" />
            <mxPoint x="2205" y="1881.9499999999998" as="targetPoint" />
            <Array as="points">
              <mxPoint x="2205.5" y="1951.9500000000005" />
            </Array>
          </mxGeometry>
        </mxCell>
        <mxCell id="ZyWzrjSWjqfe_8rXAog0-194" value="&lt;span style=&quot;color: rgba(0 , 0 , 0 , 0) ; font-family: monospace ; font-size: 0px ; font-weight: 400&quot;&gt;%3CmxGraphModel%3E%3Croot%3E%3CmxCell%20id%3D%220%22%2F%3E%3CmxCell%20id%3D%221%22%20parent%3D%220%22%2F%3E%3CmxCell%20id%3D%222%22%20value%3D%22%E5%88%A9%E6%97%A7%E6%B5%8B%E8%AF%95%E5%AE%8C%26lt%3Bbr%20style%3D%26quot%3Bfont-size%3A%2023px%3B%26quot%3B%26gt%3B%E7%A1%AC%E7%9B%98%E5%AF%BF%E5%91%BD%E8%80%97%E5%B0%BD%26lt%3Bbr%20style%3D%26quot%3Bfont-size%3A%2023px%3B%26quot%3B%26gt%3B%E6%97%A0%E6%B3%95%E5%88%A9%E7%94%A8%26lt%3Bbr%20style%3D%26quot%3Bfont-size%3A%2023px%3B%26quot%3B%26gt%3B%E9%94%80%E6%AF%81%E5%87%BA%E5%BA%93%22%20style%3D%22edgeLabel%3Bhtml%3D1%3Balign%3Dcenter%3BverticalAlign%3Dmiddle%3Bresizable%3D0%3Bpoints%3D%5B%5D%3BfontSize%3D23%3BfontStyle%3D1%22%20vertex%3D%221%22%20connectable%3D%220%22%20parent%3D%221%22%3E%3CmxGeometry%20x%3D%221838.999999999999%22%20y%3D%222770.6000000000004%22%20as%3D%22geometry%22%2F%3E%3C%2FmxCell%3E%3C%2Froot%3E%3C%2FmxGraphModel%3E&lt;/span&gt;" style="edgeLabel;html=1;align=center;verticalAlign=middle;resizable=0;points=[];fontSize=23;fontStyle=1" parent="ZyWzrjSWjqfe_8rXAog0-193" vertex="1" connectable="0">
          <mxGeometry x="-0.0442" relative="1" as="geometry">
            <mxPoint y="4" as="offset" />
          </mxGeometry>
        </mxCell>
        <mxCell id="ZyWzrjSWjqfe_8rXAog0-195" value="&lt;span style=&quot;font-size: 23px ; font-weight: 700&quot;&gt;利旧测试完&lt;/span&gt;&lt;br style=&quot;font-size: 23px ; font-weight: 700&quot;&gt;&lt;span style=&quot;font-size: 23px ; font-weight: 700&quot;&gt;硬盘寿命耗尽&lt;/span&gt;&lt;br style=&quot;font-size: 23px ; font-weight: 700&quot;&gt;&lt;span style=&quot;font-size: 23px ; font-weight: 700&quot;&gt;无法利用&lt;/span&gt;&lt;br style=&quot;font-size: 23px ; font-weight: 700&quot;&gt;&lt;span style=&quot;font-size: 23px ; font-weight: 700&quot;&gt;销毁出库&lt;/span&gt;" style="edgeLabel;html=1;align=center;verticalAlign=middle;resizable=0;points=[];" parent="ZyWzrjSWjqfe_8rXAog0-193" vertex="1" connectable="0">
          <mxGeometry x="0.15" relative="1" as="geometry">
            <mxPoint y="15" as="offset" />
          </mxGeometry>
        </mxCell>
        <mxCell id="ZyWzrjSWjqfe_8rXAog0-196" value="" style="swimlane;fontStyle=3;childLayout=stackLayout;horizontal=1;startSize=28;horizontalStack=1;resizeParent=1;resizeParentMax=0;resizeLast=0;collapsible=0;marginBottom=0;swimlaneFillColor=none;fontFamily=Permanent Marker;fontSize=19;points=[];verticalAlign=top;stackBorder=0;resizable=1;strokeWidth=2;sketch=1;disableMultiStroke=1;fillColor=#d5e8d4;strokeColor=#82b366;" parent="1" vertex="1">
          <mxGeometry x="1520.9" y="105" width="210" height="1057" as="geometry" />
        </mxCell>
        <object label="现网故障处理" status="New" id="ZyWzrjSWjqfe_8rXAog0-197">
          <mxCell style="swimlane;strokeWidth=2;fontFamily=Permanent Marker;html=0;startSize=1;verticalAlign=bottom;spacingBottom=5;points=[];childLayout=stackLayout;stackBorder=20;stackSpacing=20;resizeLast=0;resizeParent=1;horizontalStack=0;collapsible=0;sketch=1;strokeColor=#82b366;fillStyle=solid;fillColor=#d5e8d4;fontSize=19;fontStyle=1" parent="ZyWzrjSWjqfe_8rXAog0-196" vertex="1">
            <mxGeometry y="28" width="210" height="1029" as="geometry" />
          </mxCell>
        </object>
        <object label="故障监控与采集" placeholders="1" id="ZyWzrjSWjqfe_8rXAog0-198">
          <mxCell style="whiteSpace=wrap;html=1;strokeWidth=2;fontStyle=1;spacingTop=0;rounded=1;arcSize=9;points=[];sketch=1;fontFamily=Permanent Marker;hachureGap=8;fillWeight=1;fontSize=19;fillColor=#d5e8d4;strokeColor=#82b366;" parent="ZyWzrjSWjqfe_8rXAog0-197" vertex="1">
            <mxGeometry x="20" y="21" width="170" height="80" as="geometry" />
          </mxCell>
        </object>
        <object label="故障发现与确认" placeholders="1" id="ZyWzrjSWjqfe_8rXAog0-199">
          <mxCell style="whiteSpace=wrap;html=1;strokeWidth=2;fontStyle=1;spacingTop=0;rounded=1;arcSize=9;points=[];sketch=1;fontFamily=Permanent Marker;hachureGap=8;fillWeight=1;fontSize=19;fillColor=#d5e8d4;strokeColor=#82b366;" parent="ZyWzrjSWjqfe_8rXAog0-197" vertex="1">
            <mxGeometry x="20" y="121" width="170" height="80" as="geometry" />
          </mxCell>
        </object>
        <object label="故障处理流程" placeholders="1" id="ZyWzrjSWjqfe_8rXAog0-200">
          <mxCell style="whiteSpace=wrap;html=1;strokeWidth=2;fontStyle=1;spacingTop=0;rounded=1;arcSize=9;points=[];sketch=1;fontFamily=Permanent Marker;hachureGap=8;fillWeight=1;fontSize=19;fillColor=#d5e8d4;strokeColor=#82b366;" parent="ZyWzrjSWjqfe_8rXAog0-197" vertex="1">
            <mxGeometry x="20" y="221" width="170" height="80" as="geometry" />
          </mxCell>
        </object>
        <object label="服务器维保流程&lt;br&gt;（OEM机器厂商带备件维修&lt;br&gt;ODM自维保机器发起RMA流程）" placeholders="1" id="ZyWzrjSWjqfe_8rXAog0-201">
          <mxCell style="whiteSpace=wrap;html=1;strokeWidth=2;fontStyle=1;spacingTop=0;rounded=1;arcSize=9;points=[];sketch=1;fontFamily=Permanent Marker;hachureGap=8;fillWeight=1;fontSize=19;fillColor=#f8cecc;strokeColor=#b85450;" parent="ZyWzrjSWjqfe_8rXAog0-197" vertex="1">
            <mxGeometry x="20" y="321" width="170" height="172" as="geometry" />
          </mxCell>
        </object>
        <mxCell id="ZyWzrjSWjqfe_8rXAog0-202" value="" style="swimlane;fontStyle=3;childLayout=stackLayout;horizontal=1;startSize=28;horizontalStack=1;resizeParent=1;resizeParentMax=0;resizeLast=0;collapsible=0;marginBottom=0;swimlaneFillColor=none;fontFamily=Permanent Marker;fontSize=19;points=[];verticalAlign=top;stackBorder=0;resizable=1;strokeWidth=2;sketch=1;disableMultiStroke=1;fillColor=#d5e8d4;strokeColor=#82b366;" parent="1" vertex="1">
          <mxGeometry x="1756.9" y="105" width="175" height="1056" as="geometry" />
        </mxCell>
        <object label="现网质量运营" status="New" id="ZyWzrjSWjqfe_8rXAog0-203">
          <mxCell style="swimlane;strokeWidth=2;fontFamily=Permanent Marker;html=0;startSize=1;verticalAlign=bottom;spacingBottom=5;points=[];childLayout=stackLayout;stackBorder=20;stackSpacing=20;resizeLast=0;resizeParent=1;horizontalStack=0;collapsible=0;sketch=1;strokeColor=#82b366;fillStyle=solid;fillColor=#d5e8d4;fontSize=19;fontStyle=1" parent="ZyWzrjSWjqfe_8rXAog0-202" vertex="1">
            <mxGeometry y="28" width="175" height="1028" as="geometry" />
          </mxCell>
        </object>
        <object label="服务器现网&lt;br&gt;故障诊断" placeholders="1" id="ZyWzrjSWjqfe_8rXAog0-204">
          <mxCell style="whiteSpace=wrap;html=1;strokeWidth=2;fontStyle=1;spacingTop=0;rounded=1;arcSize=9;points=[];sketch=1;fontFamily=Permanent Marker;hachureGap=8;fillWeight=1;fontSize=19;fillColor=#d5e8d4;strokeColor=#82b366;" parent="ZyWzrjSWjqfe_8rXAog0-203" vertex="1">
            <mxGeometry x="20" y="21" width="135" height="80" as="geometry" />
          </mxCell>
        </object>
        <object label="厂商故障诊断" placeholders="1" id="ZyWzrjSWjqfe_8rXAog0-205">
          <mxCell style="whiteSpace=wrap;html=1;strokeWidth=2;fontStyle=1;spacingTop=0;rounded=1;arcSize=9;points=[];sketch=1;fontFamily=Permanent Marker;hachureGap=8;fillWeight=1;fontSize=19;fillColor=#d5e8d4;strokeColor=#82b366;" parent="ZyWzrjSWjqfe_8rXAog0-203" vertex="1">
            <mxGeometry x="20" y="121" width="135" height="80" as="geometry" />
          </mxCell>
        </object>
        <object label="厂商根因分析（FA管理）" placeholders="1" id="ZyWzrjSWjqfe_8rXAog0-206">
          <mxCell style="whiteSpace=wrap;html=1;strokeWidth=2;fontStyle=1;spacingTop=0;rounded=1;arcSize=9;points=[];sketch=1;fontFamily=Permanent Marker;hachureGap=8;fillWeight=1;fontSize=19;fillColor=#d5e8d4;strokeColor=#82b366;" parent="ZyWzrjSWjqfe_8rXAog0-203" vertex="1">
            <mxGeometry x="20" y="221" width="135" height="80" as="geometry" />
          </mxCell>
        </object>
        <object label="服务器现网&lt;br&gt;质量分析" placeholders="1" id="ZyWzrjSWjqfe_8rXAog0-207">
          <mxCell style="whiteSpace=wrap;html=1;strokeWidth=2;fontStyle=1;spacingTop=0;rounded=1;arcSize=9;points=[];sketch=1;fontFamily=Permanent Marker;hachureGap=8;fillWeight=1;fontSize=19;fillColor=#d5e8d4;strokeColor=#82b366;" parent="ZyWzrjSWjqfe_8rXAog0-203" vertex="1">
            <mxGeometry x="20" y="321" width="135" height="80" as="geometry" />
          </mxCell>
        </object>
        <object label="整机健康度" placeholders="1" id="ZyWzrjSWjqfe_8rXAog0-208">
          <mxCell style="whiteSpace=wrap;html=1;strokeWidth=2;fontStyle=1;spacingTop=0;rounded=1;arcSize=9;points=[];sketch=1;fontFamily=Permanent Marker;hachureGap=8;fillWeight=1;fontSize=19;fillColor=#d5e8d4;strokeColor=#82b366;" parent="ZyWzrjSWjqfe_8rXAog0-203" vertex="1">
            <mxGeometry x="20" y="421" width="135" height="80" as="geometry" />
          </mxCell>
        </object>
        <object label="事件管理" placeholders="1" id="ZyWzrjSWjqfe_8rXAog0-209">
          <mxCell style="whiteSpace=wrap;html=1;strokeWidth=2;fontStyle=1;spacingTop=0;rounded=1;arcSize=9;points=[];sketch=1;fontFamily=Permanent Marker;hachureGap=8;fillWeight=1;fontSize=19;fillColor=#d5e8d4;strokeColor=#82b366;" parent="ZyWzrjSWjqfe_8rXAog0-203" vertex="1">
            <mxGeometry x="20" y="521" width="135" height="80" as="geometry" />
          </mxCell>
        </object>
        <object label="问题管理" placeholders="1" id="ZyWzrjSWjqfe_8rXAog0-210">
          <mxCell style="whiteSpace=wrap;html=1;strokeWidth=2;fontStyle=1;spacingTop=0;rounded=1;arcSize=9;points=[];sketch=1;fontFamily=Permanent Marker;hachureGap=8;fillWeight=1;fontSize=19;fillColor=#d5e8d4;strokeColor=#82b366;" parent="ZyWzrjSWjqfe_8rXAog0-203" vertex="1">
            <mxGeometry x="20" y="621" width="135" height="80" as="geometry" />
          </mxCell>
        </object>
        <object label="变更管理" placeholders="1" id="ZyWzrjSWjqfe_8rXAog0-211">
          <mxCell style="whiteSpace=wrap;html=1;strokeWidth=2;fontStyle=1;spacingTop=0;rounded=1;arcSize=9;points=[];sketch=1;fontFamily=Permanent Marker;hachureGap=8;fillWeight=1;fontSize=19;fillColor=#d5e8d4;strokeColor=#82b366;" parent="ZyWzrjSWjqfe_8rXAog0-203" vertex="1">
            <mxGeometry x="20" y="721" width="135" height="80" as="geometry" />
          </mxCell>
        </object>
        <mxCell id="ZyWzrjSWjqfe_8rXAog0-212" style="edgeStyle=orthogonalEdgeStyle;rounded=0;orthogonalLoop=1;jettySize=auto;html=1;shape=flexArrow;fillColor=#d5e8d4;strokeColor=#82b366;fontStyle=1;" parent="1" edge="1">
          <mxGeometry relative="1" as="geometry">
            <Array as="points">
              <mxPoint x="677" y="105" />
              <mxPoint x="677" y="52" />
              <mxPoint x="1110" y="52" />
              <mxPoint x="1110" y="104" />
            </Array>
            <mxPoint x="682" y="105" as="sourcePoint" />
            <mxPoint x="1111" y="104.5" as="targetPoint" />
          </mxGeometry>
        </mxCell>
        <mxCell id="ZyWzrjSWjqfe_8rXAog0-213" value="&lt;meta charset=&quot;utf-8&quot;&gt;&lt;span style=&quot;color: rgb(0, 0, 0); font-family: helvetica; font-size: 30px; font-style: normal; font-weight: 700; letter-spacing: normal; text-align: center; text-indent: 0px; text-transform: none; word-spacing: 0px; background-color: rgb(255, 255, 255); display: inline; float: none;&quot;&gt;到货验收后直接部署&lt;/span&gt;" style="text;whiteSpace=wrap;html=1;" parent="1" vertex="1">
          <mxGeometry x="754.999836065574" y="18.000491803278905" width="290" height="34" as="geometry" />
        </mxCell>
        <mxCell id="ZyWzrjSWjqfe_8rXAog0-214" value="&lt;b style=&quot;font-size: 30px&quot;&gt;服务器现网运营阶段&lt;/b&gt;" style="html=1;shadow=0;dashed=0;align=center;verticalAlign=middle;shape=mxgraph.arrows2.arrow;dy=0;dx=10;notch=10;fillColor=#d5e8d4;strokeColor=#82b366;" parent="1" vertex="1">
          <mxGeometry x="1263.4" y="-96" width="693.6" height="67" as="geometry" />
        </mxCell>
        <mxCell id="ZyWzrjSWjqfe_8rXAog0-215" value="&lt;b style=&quot;font-size: 30px&quot;&gt;服务器到货验收+交付阶段&lt;/b&gt;" style="html=1;shadow=0;dashed=0;align=center;verticalAlign=middle;shape=mxgraph.arrows2.arrow;dy=0;dx=10;notch=10;fillColor=#d5e8d4;strokeColor=#82b366;" parent="1" vertex="1">
          <mxGeometry x="565" y="-96" width="694" height="67" as="geometry" />
        </mxCell>
        <mxCell id="ZyWzrjSWjqfe_8rXAog0-216" value="&lt;span style=&quot;font-size: 30px&quot;&gt;&lt;b&gt;生产+出厂验收&lt;/b&gt;&lt;/span&gt;" style="html=1;shadow=0;dashed=0;align=center;verticalAlign=middle;shape=mxgraph.arrows2.arrow;dy=0;dx=10;notch=10;fillColor=#d5e8d4;strokeColor=#82b366;" parent="1" vertex="1">
          <mxGeometry x="337" y="-96" width="226" height="67" as="geometry" />
        </mxCell>
        <mxCell id="ZyWzrjSWjqfe_8rXAog0-217" value="&lt;b style=&quot;font-size: 30px&quot;&gt;研发引入阶段&lt;/b&gt;" style="html=1;shadow=0;dashed=0;align=center;verticalAlign=middle;shape=mxgraph.arrows2.arrow;dy=0;dx=10;notch=10;fillColor=#d5e8d4;strokeColor=#82b366;" parent="1" vertex="1">
          <mxGeometry x="-143" y="-96" width="227" height="67" as="geometry" />
        </mxCell>
        <mxCell id="ZyWzrjSWjqfe_8rXAog0-218" value="&lt;b style=&quot;font-size: 30px&quot;&gt;供应链采购阶段&lt;/b&gt;" style="html=1;shadow=0;dashed=0;align=center;verticalAlign=middle;shape=mxgraph.arrows2.arrow;dy=0;dx=10;notch=10;fillColor=#d5e8d4;strokeColor=#82b366;" parent="1" vertex="1">
          <mxGeometry x="87" y="-96" width="249" height="67" as="geometry" />
        </mxCell>
        <mxCell id="ZyWzrjSWjqfe_8rXAog0-219" value="&lt;b style=&quot;font-size: 30px&quot;&gt;服务器回收、退役阶段&lt;/b&gt;" style="html=1;shadow=0;dashed=0;align=center;verticalAlign=middle;shape=mxgraph.arrows2.arrow;dy=0;dx=10;notch=10;fillColor=#d5e8d4;strokeColor=#82b366;" parent="1" vertex="1">
          <mxGeometry x="1961" y="-96" width="438" height="67" as="geometry" />
        </mxCell>
        <mxCell id="ZyWzrjSWjqfe_8rXAog0-220" value="&lt;b style=&quot;font-size: 30px&quot;&gt;服务器利旧、销毁阶段&lt;/b&gt;" style="html=1;shadow=0;dashed=0;align=center;verticalAlign=middle;shape=mxgraph.arrows2.arrow;dy=0;dx=10;notch=10;fillColor=#d5e8d4;strokeColor=#82b366;" parent="1" vertex="1">
          <mxGeometry x="2404" y="-96" width="798" height="67" as="geometry" />
        </mxCell>
        <mxCell id="ZyWzrjSWjqfe_8rXAog0-221" value="&lt;b style=&quot;font-size: 30px&quot;&gt;服务器转售阶段&lt;/b&gt;" style="html=1;shadow=0;dashed=0;align=center;verticalAlign=middle;shape=mxgraph.arrows2.arrow;dy=0;dx=10;notch=10;fillColor=#d5e8d4;strokeColor=#82b366;" parent="1" vertex="1">
          <mxGeometry x="3207" y="-96" width="288" height="67" as="geometry" />
        </mxCell>
      </root>
    </mxGraphModel>
  </diagram>
</mxfile>
